<svg width="163" height="153" viewBox="0 0 163 153" fill="none" xmlns="http://www.w3.org/2000/svg">
<path d="M124.183 35.0921L123.686 53.1689L122.336 61.3017H133.064V34.1687C133.064 34.1687 130.542 35.1986 127.416 35.0921C124.29 34.9855 124.183 35.0921 124.183 35.0921Z" fill="#E6F972" stroke="#01313D" stroke-width="0.5" stroke-miterlimit="10"/>
<path d="M71.7525 82.6459C71.7525 82.2552 71.788 81.8291 71.788 81.4384C71.8235 81.0478 71.8946 80.6216 71.9656 80.2309C72.1432 79.4496 72.3919 78.6328 72.7471 77.9225C73.3865 76.4309 74.3101 75.1524 75.1981 73.9094C76.0862 72.6664 76.9743 71.4589 77.6492 70.1803C77.8268 69.8607 77.9334 69.5411 78.0754 69.1859L78.2531 68.6887L78.3951 68.1915C78.5728 67.5168 78.6438 66.8065 78.6438 66.0962C78.6438 65.9186 78.6438 65.7766 78.6438 65.599C78.6438 65.5635 78.6438 65.4924 78.6083 65.4214L78.5728 65.2083C78.5728 65.0663 78.5372 64.9242 78.5017 64.7466C78.4662 64.5691 78.4307 64.427 78.3951 64.2494L78.2175 63.7167L77.8623 62.5803C78.0044 62.6513 78.0399 62.6158 78.2531 62.7223L78.7148 62.9354L79.6029 63.3971L81.1659 64.1784L83.2262 65.2083L85.8548 66.5224L86.4942 66.842L87.1336 67.0906C87.5599 67.2682 88.0217 67.4102 88.4834 67.5878C90.2951 68.1915 92.1777 68.5112 94.1315 68.6887C96.0497 68.8663 98.0034 68.8308 99.9571 68.7953C101.911 68.7598 103.9 68.7243 105.854 68.7953C106.742 68.8308 107.701 68.9018 108.589 69.328C109.477 69.7542 110.187 70.642 110.365 71.6719C110.401 71.814 110.401 71.9206 110.401 72.0626V72.3822C110.401 72.5953 110.401 72.8084 110.401 73.0215V73.6608L110.436 74.3C110.472 75.1524 110.578 76.0047 110.72 76.8215C111.076 78.9524 111.928 81.0478 112.354 83.2852C112.567 84.3861 112.71 85.5581 112.674 86.6945C112.639 87.831 112.461 89.003 112.141 90.1039C111.928 90.7787 111.715 91.0273 111.608 90.9918C111.502 90.9208 111.466 90.5656 111.466 89.9619C111.466 89.3581 111.502 88.5413 111.466 87.5824C111.431 86.6235 111.324 85.5226 111.147 84.3151C110.969 83.2496 110.72 82.1842 110.436 81.0833C110.152 80.0178 109.797 78.8814 109.584 77.7449C109.335 76.6085 109.193 75.401 109.157 74.229C109.122 73.6608 109.157 73.0215 109.157 72.4533L109.193 72.0271C109.193 71.9561 109.193 71.9561 109.193 71.9206C109.193 71.885 109.193 71.8495 109.193 71.7785C109.157 71.6009 109.086 71.4233 109.015 71.2458C108.838 70.8906 108.518 70.6065 108.163 70.4289C107.772 70.2514 107.31 70.1093 106.777 70.0738C106.28 70.0028 105.712 70.0028 105.143 70.0028C104.575 70.0028 104.007 69.9673 103.438 69.9673C101.165 69.9673 98.8914 70.0383 96.5825 69.9673C93.8118 69.8962 90.9345 69.5766 88.1993 68.6887C87.844 68.5822 87.5243 68.4757 87.1691 68.3336L86.139 67.9429C85.4996 67.6588 84.8602 67.3037 84.2563 67.0196C83.013 66.3803 81.7342 65.7766 80.491 65.1373L80.1357 64.9597L79.9936 64.8887L79.9226 64.8532H79.8871C79.8871 64.8532 79.8871 64.8532 79.8871 64.8887V64.9242C79.9226 65.0308 79.9226 65.1373 79.9581 65.2794V65.3859V65.528C79.9581 65.7055 79.9936 65.8831 79.9936 66.0607C79.9936 66.771 79.9226 67.5168 79.7805 68.2271C79.6384 68.9373 79.3898 69.6476 79.1056 70.2869C78.8214 70.9617 78.4662 71.5654 78.111 72.1692C76.619 74.5131 74.7719 76.5729 73.8128 79.0234C73.4931 79.8758 73.28 80.7636 73.1734 81.6515C73.1023 82.5394 73.1379 83.4983 73.1734 84.4216C73.28 86.2684 73.5641 88.1506 74.1325 89.8908L74.2035 90.0684C74.2035 90.1039 74.2391 90.1394 74.2391 90.175C74.3456 90.246 74.7364 90.4236 75.0205 90.5656C75.3402 90.7077 75.6599 90.8497 75.9796 90.9918L76.9387 91.3824L77.8978 91.7376C79.2122 92.1993 80.5265 92.5544 81.8763 92.8741C84.576 93.5133 87.3112 93.8685 90.0464 94.0105C94.4512 94.1881 98.7493 93.7264 103.012 92.9096C103.936 92.732 104.859 92.5189 105.818 92.3413C107.559 91.9862 108.731 91.7376 109.619 91.6666C109.726 91.6666 109.832 91.6666 109.939 91.6666C109.974 91.6666 110.045 91.6666 110.081 91.6666C110.116 91.6666 110.152 91.6666 110.187 91.6666C110.294 91.6666 110.436 91.6666 110.543 91.6311C110.756 91.5955 110.933 91.5245 111.111 91.4535C111.289 91.3825 111.431 91.2049 111.537 91.1338C111.644 91.0628 111.679 91.0983 111.679 91.2759C111.679 91.418 111.608 91.7376 111.324 92.0217C111.182 92.1638 111.004 92.3413 110.756 92.4479C110.507 92.5544 110.152 92.6255 109.974 92.661C109.513 92.732 108.944 92.8741 108.305 93.0161C106.422 93.4778 104.468 93.9395 102.479 94.2946C100.49 94.6498 98.4652 94.9339 96.4049 95.1115C94.3446 95.289 92.2488 95.3246 90.153 95.2535C88.0572 95.147 85.9614 94.9339 83.9011 94.5787C82.125 94.2591 80.3844 93.8329 78.6438 93.3002C77.7913 93.0161 76.9387 92.732 76.0862 92.4124C75.6599 92.2348 75.2337 92.0572 74.8074 91.8797C74.5943 91.7731 74.3811 91.7021 74.168 91.5955L73.8483 91.418L73.28 91.1338C73.2089 90.9918 73.1379 90.8497 73.1023 90.7077C73.0668 90.6366 73.0313 90.5656 73.0313 90.4946L72.9958 90.3525C72.9247 90.175 72.8892 90.0329 72.8537 89.8553C72.7471 89.5357 72.6761 89.1806 72.605 88.8609C72.4629 88.1862 72.3209 87.5114 72.2143 86.8721C71.8235 85.345 71.717 83.9955 71.7525 82.6459Z" fill="#01313D"/>
<path d="M147.983 79.3786C148.019 79.9823 147.735 80.0889 147.344 79.5917C147.131 79.2365 146.953 78.8814 146.456 77.1767C146.101 76.2533 145.781 75.3299 145.781 75.3299C145.781 75.2944 145.568 74.7262 145.248 73.8739C144.929 73.0215 144.502 71.8495 144.04 70.5355C143.117 67.9074 142.122 64.7466 141.518 62.5448C141.199 61.4083 140.772 60.2008 140.701 60.0587C140.63 59.8812 139.6 56.1522 139.458 55.5129C139.138 54.1634 138.819 52.8138 138.499 51.4998C138.499 51.4287 138.499 51.3932 138.499 51.3577C138.499 51.3222 138.535 51.2867 138.57 51.2867H138.641C139.032 51.2157 139.209 51.7839 139.671 54.0923C139.884 55.0512 140.524 57.5372 141.128 59.4195C142.087 62.7578 142.797 64.9953 143.295 66.4869C143.792 67.9785 144.04 68.6532 144.076 68.8663C144.147 69.0439 144.254 69.4346 144.467 69.7897C144.644 70.3579 144.715 70.5355 144.822 71.1392C144.964 71.5299 145.106 71.885 145.177 72.0626C145.248 72.2757 145.781 73.3411 146.349 75.0103C146.882 76.5019 147.451 77.7804 147.593 77.9225C147.841 78.1711 148.054 78.7393 147.983 79.3786Z" fill="#01313D"/>
<path d="M120.738 21.6321C120.915 21.6321 121.093 21.5611 121.235 21.4901C121.235 21.6677 121.235 21.8808 121.306 22.0583C121.413 22.4845 121.839 22.6621 121.946 23.0882C122.088 23.5854 122.088 24.1182 122.088 24.6154C122.123 25.5387 122.372 26.4976 123.047 27.1724C123.899 28.0603 125.071 28.4864 126.244 28.2023C126.315 28.9836 126.386 29.765 126.492 30.5463C126.599 31.3631 126.67 32.251 126.954 32.9968C127.025 33.2098 127.38 33.1033 127.309 32.8902C127.025 32.1444 126.954 31.2566 126.848 30.4397C126.741 29.6584 126.67 28.8416 126.599 28.0603C126.706 28.0247 126.741 27.9537 126.777 27.8827C127.345 27.7406 127.878 27.492 128.34 27.1014C128.411 27.0303 128.411 26.9238 128.34 26.8528C128.268 26.7817 128.162 26.7817 128.091 26.8528C127.665 27.2079 127.167 27.4565 126.634 27.5631C126.599 27.5631 126.528 27.5631 126.492 27.5631C125.143 28.0603 123.58 27.35 122.976 26.0359C122.834 25.7518 122.798 25.4677 122.727 25.2191C122.763 25.2191 122.763 25.2191 122.798 25.2546C122.94 25.2901 123.047 25.2901 123.189 25.3256C123.366 25.3612 123.509 25.3612 123.686 25.3256C123.793 25.3256 123.864 25.2901 123.935 25.2191C124.006 25.1481 124.041 25.0415 124.041 24.9705C124.041 24.7929 123.899 24.5798 123.686 24.6154C123.509 24.6154 123.366 24.6154 123.189 24.6154C123.047 24.5798 122.905 24.5443 122.763 24.5088C122.763 24.5088 122.798 24.5088 122.798 24.5443C122.763 24.5443 122.727 24.5088 122.691 24.5088C122.656 23.9761 122.656 23.4079 122.478 22.8752C122.301 22.378 121.803 22.1649 121.839 21.6321C121.839 20.9929 122.088 20.3891 122.194 19.7854C122.194 19.7144 122.194 19.6789 122.23 19.6078C122.301 19.6433 122.372 19.6789 122.443 19.6789C122.585 19.6789 122.727 19.6789 122.869 19.6789C122.976 19.6789 123.047 19.6433 123.118 19.5723L123.153 19.5368C123.26 20.6733 124.041 21.5611 124.965 21.5611C125.995 21.5611 126.812 20.5312 126.812 19.2882V19.2527C126.883 19.3237 126.954 19.3592 127.061 19.3592C127.913 19.3592 128.801 19.3592 129.654 19.3592C129.938 19.6789 130.222 19.963 130.684 20.034C131.217 20.105 131.643 19.7499 132.069 19.5013C132.318 19.3592 132.567 19.2527 132.815 19.4658C133.028 19.6433 133.135 19.963 133.099 20.2116C133.028 20.7443 132.709 21.2415 132.638 21.7742C132.531 22.4845 132.709 23.0527 132.922 23.7275C133.099 24.4023 133.135 25.1126 133.242 25.7873C133.348 26.5687 133.384 27.2789 133.952 27.8472C134.698 28.6285 135.586 28.5575 136.545 28.4154C137.575 28.2733 138.605 28.0603 139.636 27.8472C140.453 27.6696 141.305 27.492 142.122 27.2789C142.619 27.1724 142.762 26.6042 142.904 26.178C143.081 25.6098 143.152 25.006 143.117 24.4378C143.01 21.9518 141.554 19.6433 140.062 17.69C138.534 15.7012 137.362 13.4283 135.728 11.5105C134.876 10.5161 133.952 9.66379 132.709 9.23762C131.679 8.88247 130.471 8.66939 129.37 8.74042C128.34 8.77593 127.345 8.98902 126.35 9.2021C125.498 9.37968 124.645 9.59276 123.899 10.09C122.301 11.1554 120.738 13.0732 120.915 15.133C120.951 15.7368 121.164 16.2695 121.484 16.8022C121.555 16.9442 121.732 17.0153 121.874 16.9798C121.803 17.3704 121.803 17.7611 121.768 18.1517C121.519 17.7611 121.2 17.548 120.809 17.548C120.063 17.548 119.459 18.5069 119.459 19.6433C119.459 20.7798 119.992 21.6321 120.738 21.6321ZM122.23 17.5835C122.265 17.2994 122.301 16.9798 122.336 16.6956C122.798 16.5536 123.26 16.4115 123.722 16.305C123.864 16.2695 124.006 16.234 124.148 16.1629C124.183 16.1629 124.326 16.1274 124.326 16.1274C124.539 16.1274 124.787 16.1629 125 16.1629C125.427 16.1629 125.853 16.1984 126.279 16.1984C126.421 16.1984 126.599 16.234 126.741 16.234C127.061 16.5181 127.345 16.7667 127.629 17.0863C128.091 17.548 128.553 18.0452 128.943 18.5779C128.268 18.5779 127.594 18.5779 126.919 18.5779C126.777 18.5779 126.67 18.6489 126.634 18.7555C126.457 17.7256 125.711 16.9442 124.823 16.9442C123.864 16.9442 123.047 17.8676 122.976 19.0751C122.976 19.0751 122.976 19.0396 122.94 19.0396C122.869 18.9686 122.798 18.9331 122.691 18.9331C122.549 18.9331 122.407 18.9331 122.265 18.9331C122.23 18.9331 122.159 18.9331 122.123 18.9686C122.23 18.5069 122.194 18.0452 122.23 17.5835Z" fill="#01313D"/>
<path d="M155.763 137.871L153.56 128.744L147.841 90.9563L150.789 90.8497L150.15 88.1861C152.708 86.0553 154.271 83.001 154.555 79.8403C154.555 79.4851 153.986 79.4141 153.915 79.7337C153.347 82.3973 151.749 84.7412 149.688 86.2684L148.871 82.859L147.912 79.5917L159.386 77.6029C159.386 77.6029 158.569 71.1747 154.235 60.4139C152.779 56.7914 149.084 45.1427 145.212 39.5314C143.472 37.0099 139.032 32.7837 137.327 32.5706L136.474 28.593L129.05 30.1911L129.405 34.4173L130.009 61.0886C127.736 61.0886 125.462 61.0886 123.224 61.0886L124.148 54.1989L124.574 35.2697H124.539C124.539 35.2697 124.574 35.2697 124.574 35.2342V35.2697L125.498 34.737L125.32 30.9724L123.082 32.7126L123.118 34.7725C121.022 35.4828 117.328 38.7146 116.44 44.1128C116.226 45.2847 114.131 46.8119 112.212 47.9483C110.223 49.1558 109.086 51.3932 109.264 53.7017C109.903 55.7615 110.188 57.9279 110.081 60.0942L110.046 60.9821C108.873 61.2662 107.737 61.5859 106.564 61.7989C105.605 61.9765 104.611 62.0831 103.616 62.1186C102.799 62.1541 102.018 62.1541 101.201 62.1541C101.201 59.8812 101.343 57.5372 101.556 55.868C101.698 55.8325 101.804 55.797 101.946 55.7615C103.261 55.3708 104.611 55.0157 105.96 54.6961C107.452 54.3409 108.376 53.5241 107.559 53.6661C106.635 53.8082 105.747 54.0213 104.859 54.2699C104.255 52.5297 103.367 51.3932 102.337 51.0026C101.662 50.754 100.987 50.8605 100.383 51.2512C99.3889 51.8904 98.8205 53.311 98.4653 55.9746C98.2166 56.0101 97.9325 56.0811 97.6838 56.1166C97.5062 54.483 96.9023 52.4942 95.6946 51.6773C95.1617 51.2867 94.5223 51.1801 93.8829 51.3222C92.6752 51.6773 91.645 52.8138 90.5439 55.2288C90.011 55.0867 89.4782 54.9447 88.9454 54.8026C88.4836 54.6961 88.0218 54.5895 87.56 54.483C87.0982 54.3764 86.6364 54.3054 86.1036 54.2699C85.0734 54.2699 84.1499 54.483 83.1908 54.8026C82.729 54.9447 82.2672 55.1222 81.8409 55.3708C81.6278 55.4774 81.4147 55.6194 81.2015 55.7615C80.9884 55.9035 80.7753 56.0456 80.5621 56.2942C80.4556 56.4007 80.3845 56.5428 80.3135 56.6849C80.2424 56.8624 80.1714 57.0755 80.2424 57.2886C80.2779 57.3951 80.3135 57.5017 80.3845 57.5727C80.4556 57.6437 80.4911 57.7148 80.5621 57.7858C80.6332 57.8213 80.7042 57.8924 80.7397 57.9279L80.9884 58.0699L81.2726 58.1054L81.4502 58.141L81.8054 58.1765C82.0541 58.212 82.3027 58.2475 82.5514 58.283C83.0487 58.3896 83.546 58.4961 84.0078 58.6026C84.2209 58.6737 84.4696 58.7092 84.6827 58.7802C84.6472 58.7802 84.6117 58.7802 84.5761 58.7802C84.0433 58.7802 83.5105 58.7802 82.9776 58.8512C82.9066 58.8512 82.8355 58.8868 82.7645 58.8868C82.6935 58.9223 82.5869 58.9578 82.4803 58.9933C82.3027 59.0643 82.1606 59.1709 82.0541 59.3129C81.9475 59.455 81.8764 59.597 81.8764 59.7391C81.8764 59.7746 81.8764 59.8101 81.8764 59.8456C81.8764 59.8812 81.8764 59.8812 81.8764 59.9167L81.912 59.9522L82.0541 60.0587C82.1961 60.0587 82.3382 60.0942 82.5158 60.1298C82.6579 60.1653 82.8355 60.1653 82.9066 60.2008C83.6881 60.4139 84.4696 60.6625 85.2511 60.9111C86.0325 61.1597 86.8495 61.3728 87.631 61.5858C87.8086 61.6214 88.0218 61.6569 88.1994 61.7279C87.2758 64.7111 86.9206 66.5224 86.8495 66.984L86.6009 66.8775L85.9615 66.5579L83.3329 65.2438L81.2726 64.2139L79.7096 63.4326L78.8215 62.9709L78.3598 62.7578C78.1821 62.6513 78.1466 62.6513 77.969 62.6158L78.3242 63.7522L78.5018 64.285C78.5374 64.4625 78.5729 64.6046 78.6084 64.7821C78.6439 64.9597 78.6795 65.1018 78.6795 65.2438L78.715 65.4569C78.715 65.528 78.7505 65.599 78.7505 65.6345C78.7505 65.8121 78.786 65.9541 78.7505 66.1317C78.7505 66.3093 78.7505 66.4513 78.7505 66.6289C78.2177 66.0962 77.7204 65.5635 77.5427 65.1373C76.9744 63.8233 76.5836 62.4027 75.7311 61.2307C76.2995 60.5559 76.4771 59.7391 76.5481 58.9223C76.6192 58.1054 76.6192 57.2886 76.9033 56.5073C76.9744 56.3297 76.8323 56.1877 76.6547 56.2232C76.406 56.2587 76.1929 56.3297 75.9442 56.4363C75.8377 56.4718 75.7311 56.5073 75.6245 56.5783C75.5535 56.4363 75.4114 56.2942 75.3404 56.3652C75.3404 56.3652 75.3048 56.4007 75.2693 56.4007C75.3048 56.1877 75.3404 55.9746 75.3759 55.7615C75.3759 55.6549 75.3759 55.5484 75.3048 55.4774C75.2693 55.4419 75.1272 55.4419 75.0562 55.4419C73.3866 56.0101 72.392 57.1821 71.9658 58.8512C71.9302 58.9933 71.8947 59.0288 71.7171 59.0288C69.9055 58.7092 67.9518 59.526 67.3834 62.6158V62.6513C67.3834 62.7933 67.3124 62.8999 67.1703 62.9354C66.744 63.0419 66.2822 63.184 65.8559 63.255C65.8204 63.255 65.8204 63.255 65.7849 63.255C65.7849 63.2195 65.7849 63.184 65.6783 63.113C65.5718 63.0419 65.4297 63.0419 65.3586 63.0419C65.2876 63.0419 65.2165 63.0775 65.1455 63.0775C65.0745 63.113 65.0034 63.1485 64.8969 63.2905C64.8969 63.3261 64.8613 63.3261 64.8613 63.3616V63.3971C64.8613 63.4326 64.8613 63.4681 64.8613 63.5036C64.8613 63.5747 64.8613 63.6812 64.9324 63.7877C64.9324 63.8233 64.9679 63.8233 64.9679 63.8588C64.9324 64.1784 64.8969 64.5335 64.9679 64.9242C65.0034 65.3504 65.181 65.7766 65.4652 66.1317C65.998 66.842 66.7795 67.1971 67.5255 67.4457C68.2359 67.6588 68.9109 67.8719 69.5858 68.085C70.1541 68.2626 70.7225 68.4756 71.1843 68.6887C71.2198 68.7953 71.2553 68.9373 71.2908 69.0794C71.6105 70.2514 71.7526 71.4589 71.8947 72.6308C72.0723 74.0514 72.2144 75.4365 72.6407 76.8215C72.7472 77.1767 72.8538 77.4963 72.9959 77.8159C72.9604 77.887 72.9249 77.958 72.8893 78.029C72.5341 78.7748 72.321 79.5561 72.1078 80.3375C72.0368 80.7281 71.9658 81.1543 71.9302 81.545C71.8947 81.9356 71.8592 82.3618 71.8947 82.7524H71.8592C71.8592 84.102 71.9658 85.4515 72.1434 86.7656C72.2499 87.4403 72.3565 88.1151 72.5341 88.7544C72.6052 89.074 72.7117 89.4292 72.7828 89.7488C72.8183 89.9264 72.8893 90.0684 72.9249 90.246L72.9604 90.388C72.9959 90.4591 73.0314 90.5301 73.0314 90.6011C73.1025 90.7432 73.138 90.8852 73.209 91.0273L73.7774 91.3114L74.0971 91.489C74.3102 91.5955 74.5234 91.6666 74.7365 91.7731C75.1628 91.9507 75.589 92.1282 76.0153 92.3058C76.8678 92.6255 77.7204 92.9451 78.5729 93.1937C80.3135 93.7264 82.0541 94.1526 83.8302 94.4722C85.8904 94.8273 87.9863 95.0759 90.0821 95.147C92.1779 95.218 94.2737 95.1825 96.334 95.0049C98.3943 94.8273 100.419 94.5432 102.408 94.1881C104.397 93.8329 106.351 93.3713 108.234 92.9096C108.873 92.7675 109.442 92.6255 109.903 92.5544C110.081 92.5189 110.436 92.4834 110.685 92.3413C110.934 92.2348 111.111 92.0572 111.253 91.9152C111.537 91.5955 111.609 91.3114 111.609 91.1694C111.609 90.9918 111.573 90.9563 111.466 91.0273C111.36 91.0983 111.182 91.2759 111.04 91.3469C110.863 91.418 110.685 91.489 110.472 91.5245C110.365 91.56 110.259 91.56 110.117 91.56C110.081 91.56 110.046 91.56 110.01 91.56C109.974 91.56 109.903 91.56 109.868 91.56C109.761 91.56 109.655 91.56 109.548 91.56C108.66 91.631 107.523 91.8797 105.747 92.2348C104.788 92.4479 103.9 92.6255 102.941 92.803C98.6784 93.6199 94.3802 94.0815 89.9755 93.904C87.2403 93.7974 84.5051 93.4068 81.8054 92.7675C80.4556 92.4479 79.1412 92.0572 77.8269 91.631L76.8678 91.2759L75.9087 90.8852C75.589 90.7432 75.2693 90.6366 74.9496 90.4591C74.6299 90.317 74.2747 90.1394 74.1681 90.0684C74.1326 90.0329 74.1326 89.9974 74.1326 89.9619L74.0616 89.7843C73.4932 88.0441 73.209 86.1618 73.1025 84.3151C73.0669 83.3917 73.0314 82.4328 73.1025 81.545C73.209 80.6571 73.4222 79.7692 73.7419 78.9169C74.701 76.4664 76.5481 74.4066 78.0401 72.0626C78.3953 71.4589 78.7505 70.8551 79.0347 70.1803C79.3544 69.5411 79.5675 68.8308 79.7096 68.1205C79.8517 67.4102 79.9227 66.6999 79.9227 65.9541C79.9227 65.7766 79.9227 65.599 79.8872 65.4214V65.2793V65.1728C79.8872 65.0663 79.8517 64.9242 79.8162 64.8177V64.7821C79.8162 64.7821 79.8162 64.7821 79.8162 64.7466H79.8517L79.9227 64.7821L80.0648 64.8532L80.42 65.0307C81.6633 65.67 82.9421 66.2738 84.1854 66.913C84.8248 67.2326 85.4287 67.5523 86.0681 67.8364L86.5654 68.014L86.5299 68.1915L87.2048 68.2626C87.4889 68.3691 87.8086 68.4756 88.0928 68.5822C90.828 69.4701 93.7053 69.7897 96.4761 69.8607C98.785 69.9317 101.058 69.8607 103.332 69.8607C103.9 69.8607 104.469 69.8607 105.037 69.8962C105.605 69.8962 106.174 69.9317 106.671 69.9673C107.168 70.0383 107.666 70.1448 108.056 70.3224C108.447 70.5 108.731 70.7841 108.909 71.1392C109.015 71.3168 109.086 71.4944 109.086 71.6719C109.086 71.7075 109.086 71.7785 109.086 71.814C109.086 71.8495 109.086 71.885 109.086 71.9205L109.051 72.3467C109.051 72.915 109.015 73.5187 109.051 74.1224C109.086 75.2944 109.229 76.5019 109.477 77.6384C109.726 78.8103 110.046 79.9113 110.33 80.9767C110.614 82.0422 110.898 83.1076 111.04 84.2085C111.218 85.416 111.324 86.517 111.36 87.4759C111.395 88.4347 111.36 89.2516 111.36 89.8553C111.36 90.4591 111.395 90.8142 111.502 90.8852C111.609 90.9563 111.822 90.6722 112.035 89.9974C112.354 88.8964 112.568 87.76 112.568 86.588C112.603 85.416 112.461 84.2796 112.248 83.1786C111.822 80.9412 111.005 78.8459 110.614 76.715C110.472 75.8982 110.365 75.0458 110.33 74.1935L110.294 73.5542V72.9149C110.294 72.7019 110.294 72.4888 110.294 72.2757V71.9561C110.294 71.814 110.294 71.6719 110.259 71.5654C110.117 70.5355 109.406 69.6476 108.483 69.2215C107.594 68.7953 106.635 68.7242 105.747 68.6887C104.362 68.6532 102.977 68.6532 101.591 68.6532L101.378 67.6233C101.129 66.4158 100.987 64.5691 100.987 62.6513C102.231 62.6868 103.474 62.6868 104.682 62.5803C105.996 62.4737 107.31 62.2251 108.589 61.9055C109.086 61.7634 109.513 61.5858 109.797 61.4083L109.761 62.3317C109.903 64.0008 111.395 65.3149 113.065 65.1018C114.379 64.9242 115.587 64.1784 116.013 62.9354C116.724 60.84 117.079 58.5671 117.185 57.7148L113.1 90.9918H119.814L119.956 89.7133C119.708 89.3581 119.53 88.9319 119.352 88.5413C118.322 86.2684 117.789 83.7468 117.47 81.2608C117.043 77.9935 116.972 74.6552 117.221 71.3523C117.221 71.2458 117.328 71.1747 117.434 71.1747C118.606 71.3523 119.885 71.6009 121.057 71.5299C121.271 71.5299 121.271 71.885 121.057 71.885C119.885 71.9561 118.677 71.743 117.541 71.5654C117.399 73.3766 117.363 75.1524 117.434 76.9636C117.541 79.8758 117.896 82.788 118.677 85.5936C118.962 86.6235 119.317 87.6889 119.779 88.6478C119.85 88.7899 119.921 88.9319 120.027 89.074L122.372 66.3448L122.834 62.7578C125.178 62.7578 127.558 62.7578 129.902 62.7578L130.542 90.7787C130.542 90.7077 130.577 90.6722 130.648 90.6366C131.892 90.1394 132.993 89.2871 133.916 88.2927C135.941 86.1618 137.256 83.4272 138.001 80.6216C138.925 77.3187 139.067 73.8383 138.499 70.4645C135.835 70.6775 133.099 70.9261 130.4 70.8196C130.187 70.8196 130.187 70.4645 130.4 70.4645C133.135 70.5355 135.906 70.2869 138.641 70.0738C138.712 70.0738 138.783 70.1448 138.818 70.2159C139.174 72.2757 139.28 74.371 139.103 76.4664C138.818 79.6982 137.895 82.8945 136.261 85.7001C134.947 87.902 133.135 89.9974 130.719 90.9918C130.613 91.0273 130.542 90.9563 130.506 90.8852V91.5955L146.669 90.9563L151.997 125.086L128.517 125.938L125.64 67.4457C125.356 61.9765 125.071 62.0475 125.32 67.4457L128.517 138.084V138.404H128.837L136.616 138.155C136.51 139.504 136.048 140.783 135.373 141.387C133.845 142.736 133.881 144.121 132.424 144.299C130.897 144.476 128.801 144.583 127.487 145.4C128.624 142.452 127.238 140.712 126.315 139.22C126.03 138.759 125.853 137.729 125.746 136.592H126.315C127.132 136.592 127.558 136.344 127.558 136.095H127.629L127.345 125.831L111.751 125.583L116.759 92.9451C117.079 90.7432 116.795 90.7432 116.44 92.9096L109.335 136.166L109.264 136.628H109.726L115.658 136.592C115.338 137.196 114.912 137.729 114.557 138.013C112.994 139.327 112.639 140.321 111.182 140.463C109.122 140.641 106.458 140.996 105.534 142.772C105.215 143.411 105.001 144.192 104.895 144.867C105.143 145.258 105.641 145.435 106.032 145.542C106.813 145.755 107.666 145.791 108.483 145.791C114.699 145.968 120.915 145.897 127.132 145.542C126.954 145.684 126.812 145.826 126.705 146.004C125.036 146.075 123.366 146.146 121.732 146.217C118.287 146.323 114.841 146.359 111.395 146.323C109.903 146.323 108.412 146.359 106.92 146.181C106.245 146.11 105.392 145.933 104.824 145.471C104.753 146.359 104.788 147.034 104.788 147.034C104.824 147.105 104.788 148.241 104.788 149.164C104.788 149.164 105.854 149.129 107.452 149.342L107.523 148.17C107.523 148.17 108.198 148.241 108.767 148.241L108.731 149.449L111.68 149.555L111.715 148.383L112.852 148.419L112.816 149.626L115.516 149.733L115.551 148.454L117.043 148.49L117.008 149.697L119.743 149.804L119.779 148.383L121.91 148.312V149.839L125.888 149.697C125.888 150.301 125.924 150.692 125.924 150.692C125.959 150.763 125.888 151.757 125.924 152.858C125.924 152.858 127.061 152.751 128.659 152.858L128.695 151.686C128.695 151.686 129.37 151.721 129.938 151.721V152.929H132.886V151.757H134.023V152.964H136.723V151.792H137.859V153H140.595V151.579L143.081 151.437L143.152 152.964L148.658 152.822L148.552 149.342C146.811 149.449 145.106 149.555 143.365 149.626C139.991 149.804 136.652 149.91 133.277 149.981C131.821 150.017 130.258 150.123 128.837 149.875C128.126 149.733 127.025 149.413 126.848 148.596C126.776 148.312 127.203 148.206 127.274 148.49C127.38 148.88 127.807 149.093 128.126 149.235C128.872 149.555 129.654 149.591 130.435 149.591C136.474 149.626 142.513 149.306 148.552 148.951V148.419C149.049 144.69 147.521 142.31 147.06 141.635C146.704 141.103 146.633 139.611 146.704 138.048L155.763 137.871ZM101.84 54.0568C102.018 54.2344 102.195 54.554 102.373 54.8736C102.124 54.9447 101.875 55.0157 101.627 55.0867C101.662 54.6961 101.733 54.3409 101.84 54.0568ZM94.4513 54.3764C94.6999 54.6961 94.9486 55.4774 95.0552 56.3297L94.6644 56.3652H94.4868L94.3447 56.3297L93.4922 56.0456C93.8829 55.3353 94.2026 54.7316 94.4513 54.3764ZM88.306 61.0531C87.0982 60.769 85.8904 60.4139 84.6827 60.0232C84.292 59.9167 83.9012 59.8101 83.546 59.6681C83.3684 59.597 83.1552 59.5615 82.9776 59.526H82.9066H82.8711H82.8355C82.8 59.526 82.8 59.526 82.8355 59.4905C82.7645 59.4905 83.0132 59.455 83.1552 59.4195C83.3329 59.4195 83.5105 59.384 83.6881 59.384C84.434 59.3484 85.18 59.384 85.8904 59.4905C86.6009 59.597 86.9561 59.7746 86.9561 59.597C86.9561 59.5615 86.9206 59.4905 86.8851 59.4195C87.5955 59.6681 87.9863 59.7391 87.9507 59.597C87.9507 59.5615 87.8797 59.4905 87.8442 59.4195C87.7021 59.1709 87.3824 58.9578 86.3522 58.6026C86.0681 58.4961 85.7839 58.4251 85.4997 58.3185C84.2209 57.9279 82.9066 57.6437 81.5567 57.4662L81.3081 57.4307L81.095 57.3951C81.0594 57.3596 80.9529 57.3241 80.9173 57.2886C80.8818 57.2531 80.8463 57.2531 80.8463 57.2176C80.8108 57.1821 80.8108 57.1465 80.7753 57.1465C80.7042 57.04 80.7397 56.8979 80.8463 56.7559C81.0594 56.4718 81.3791 56.2587 81.6988 56.0811C82.3738 55.6905 83.1197 55.4419 83.8657 55.2288C84.3985 55.0867 84.9669 54.9802 85.5352 54.9091C85.8194 54.8736 86.1036 54.8736 86.3522 54.9091C86.6364 54.9447 86.9206 54.9802 87.1692 55.0512C88.1994 55.2643 89.194 55.5129 90.1886 55.797C89.8689 56.5783 89.5137 57.4662 89.123 58.4961C88.8388 59.384 88.5546 60.2363 88.306 61.0531ZM94.1316 68.6177C92.8173 68.5112 91.4674 68.3336 90.1886 68.014L90.2242 67.3747C90.2952 66.0962 90.7215 64.2494 91.2898 62.2961C92.0003 62.4027 92.7107 62.4737 93.4212 62.5447C93.8829 62.5803 94.3092 62.6158 94.771 62.6158C95.2328 62.6158 95.659 62.6158 96.0853 62.6158C96.7247 62.6158 97.3641 62.6158 98.0035 62.6513C97.968 66.2027 98.1811 68.156 98.1811 68.2626L98.2522 68.7953C96.8313 68.7598 95.4814 68.7243 94.1316 68.6177ZM98.0746 59.384C98.039 60.3428 98.0035 61.2307 98.0035 62.012C97.6128 62.012 97.222 61.9765 96.7958 61.9765C96.1564 61.941 95.517 61.9765 94.8776 61.9765C93.7408 61.941 92.5686 61.8345 91.4319 61.6924C92.0003 59.8812 92.6397 58.0699 93.2435 56.6849C93.4212 56.7559 93.6343 56.7914 93.8119 56.8624L94.1316 56.969C94.2382 57.0045 94.3092 57.04 94.5223 57.0755L95.1973 57.0045C96.0498 56.9335 96.9023 56.8269 97.7549 56.7204C97.9325 56.6849 98.1101 56.6493 98.2877 56.6493C98.1811 57.3952 98.1101 58.3185 98.0746 59.384ZM120.88 63.7167C120.276 63.7167 119.814 63.2195 119.814 62.6513C119.814 62.0475 120.311 61.5858 120.88 61.5858C121.448 61.5858 121.945 62.0831 121.945 62.6513C121.981 63.2195 121.484 63.7167 120.88 63.7167ZM121.661 54.2344C121.057 54.2344 120.596 53.7372 120.596 53.1689C120.596 52.6007 121.093 52.1035 121.661 52.1035C122.265 52.1035 122.727 52.6007 122.727 53.1689C122.727 53.7372 122.23 54.2344 121.661 54.2344ZM143.081 79.0234C142.513 74.5131 141.092 70.1448 139.6 65.8476C138.108 61.5503 136.51 57.2531 135.515 52.7783C135.337 52.068 135.835 51.9614 135.977 52.6717C136.9 57.111 138.463 61.4083 139.92 65.741C141.376 70.0738 142.726 74.4421 143.259 78.9879C143.365 80.0178 143.223 80.0178 143.081 79.0234ZM147.521 79.8758L143.365 80.0178C143.259 80.0178 143.259 79.5561 143.365 79.5561L147.521 79.6982C147.663 79.6982 147.699 79.8403 147.521 79.8758Z" fill="#01313D"/>
<path d="M88.7324 69.6121C88.7324 69.5056 88.6969 69.399 88.6614 69.2925C88.6614 69.257 88.4838 69.1859 88.3061 69.1149C88.022 69.0084 87.5957 68.8308 87.2405 68.7598C86.9918 68.6887 86.8497 68.6532 86.8497 68.6887C86.8497 68.6887 86.7787 68.7953 86.7076 68.9373C86.6011 69.0794 86.4945 69.2925 86.3524 69.5056C86.1038 69.9317 85.8906 70.3579 85.8906 70.4289C85.8906 70.5 85.6065 70.9972 85.3578 71.4944C85.0736 71.9916 84.8605 72.5243 84.825 72.5953C84.7894 72.8439 84.7894 73.0925 84.7894 73.3411C84.7894 73.5542 84.7539 73.7318 84.7184 73.9449C84.7184 74.0159 84.6829 74.1224 84.6474 74.1935C84.6474 74.3 84.6829 74.7262 84.6474 74.8327C84.6118 74.9038 84.7539 75.0103 84.6829 75.1168C84.6118 75.1879 84.6829 75.2944 84.6474 75.3654C84.6118 75.4365 84.8605 75.543 84.6474 75.614C84.6118 75.614 84.6118 75.6496 84.6829 75.6851C84.7894 75.7206 84.7894 75.7561 84.7539 75.7916C84.5763 75.9337 84.7539 76.1113 84.8605 76.2533C84.8605 76.2533 84.825 76.2888 84.8605 76.2888C84.896 76.3598 84.896 76.4309 84.7184 76.4664C84.6829 76.4664 84.7539 76.4664 84.7539 76.5019C84.7539 76.5019 84.7539 76.5374 84.7894 76.5374C84.7894 76.5729 84.825 76.6084 84.825 76.644C84.825 76.6795 84.825 76.6795 84.7894 76.715C84.7894 76.715 84.7539 76.7505 84.7894 76.7505C84.825 76.8571 84.9315 76.9636 84.9315 77.0701C84.9315 77.2122 84.896 77.3187 84.896 77.4608C84.896 77.6029 84.9315 77.7094 84.9315 77.8515C84.9315 78.029 84.896 78.2066 84.896 78.4197C84.8605 78.5617 85.4288 79.8758 85.3933 79.9823C85.3933 80.0178 87.6667 80.0178 87.7023 79.8758C87.7378 79.8047 87.7733 79.6982 87.8444 79.6272C87.8799 79.5561 88.022 79.4496 87.9864 79.3786C87.9154 79.272 87.9509 79.1655 88.022 79.0589C88.0575 78.9879 87.9864 78.9169 88.022 78.8814C88.022 78.7038 88.0575 78.5617 88.093 78.3842C88.093 78.3487 88.1641 78.3131 88.1641 78.2776C88.1641 78.2066 88.093 78.1356 88.0575 78.0645C88.0575 78.029 87.9864 78.029 87.9864 77.9935C87.9509 77.9225 87.9864 77.8515 87.9864 77.7449C87.9864 77.6739 87.9509 77.6384 87.9509 77.5673C87.9509 77.4963 87.8444 77.4253 87.9509 77.3898C88.022 77.3543 88.0575 77.2832 87.9154 77.2477C87.8799 77.2477 87.9154 77.2122 87.9509 77.2122C87.9864 77.1767 88.1641 77.1412 88.093 77.1412C87.8799 77.0701 88.0575 76.9991 87.9509 76.8926C87.9154 76.8571 88.022 76.8571 87.9509 76.8571C87.7023 76.786 87.9154 76.7505 88.1285 76.715C88.1641 76.715 88.1996 76.6795 88.1285 76.6795C87.9509 76.644 88.0575 76.644 88.0575 76.644C88.0575 76.644 88.1285 76.6085 88.0575 76.6085C87.8088 76.5729 87.9509 76.5374 87.9509 76.5019C87.9509 76.5019 87.9509 76.5019 87.9509 76.4664C87.9509 76.4309 88.093 75.9337 88.2351 75.401C88.4127 74.9038 88.5903 74.4066 88.5903 74.3355C88.5903 74.1935 88.5903 74.0514 88.6614 73.9094C88.6969 73.8383 88.6969 73.7673 88.5193 73.6252C88.4838 73.6252 88.4482 73.5897 88.4482 73.5897C88.4482 73.5187 88.4482 73.4122 88.4838 73.3411C88.5193 73.2701 88.5903 73.2346 88.5903 73.1991C88.5903 73.1636 88.5548 73.0925 88.5548 73.057C88.5548 72.915 88.5903 72.7729 88.5903 72.5953C88.5903 72.4888 88.5548 72.3822 88.5548 72.2757C88.5548 72.2047 88.6614 72.1336 88.6614 72.0626C88.6614 71.9916 88.5903 71.9205 88.5903 71.8495C88.5903 71.6364 88.6258 71.4589 88.5903 71.2458C88.5548 71.1037 88.6614 70.9617 88.5548 70.7841C88.4482 70.6065 88.6614 70.5 88.5548 70.3224C88.4838 70.1803 88.5903 70.1093 88.6258 70.0383C88.6614 69.8252 88.7324 69.7187 88.7324 69.6121Z" fill="#01313D"/>
<path d="M101.165 74.5486C101.129 74.5486 101.094 74.5131 101.094 74.5131C101.094 74.4421 101.058 74.3355 101.094 74.2645C101.094 74.1935 101.165 74.158 101.2 74.0869C101.2 74.0514 101.129 73.9804 101.129 73.9449C101.129 73.8028 101.129 73.6252 101.129 73.4832C101.129 73.3766 101.058 73.2701 101.058 73.1636C101.058 73.0925 101.129 73.0215 101.129 72.915C101.129 72.8439 101.058 72.7729 101.023 72.7374C100.987 72.5598 100.987 72.3467 100.916 72.1692C100.845 72.0271 100.916 71.885 100.774 71.743C100.632 71.5654 100.81 71.4589 100.668 71.2813C100.561 71.1748 100.668 71.0682 100.668 70.9972C100.668 70.8906 100.703 70.7486 100.668 70.642C100.668 70.5355 100.597 70.4645 100.525 70.3579C100.49 70.3224 100.348 70.2869 100.135 70.2514C99.8506 70.1803 99.3888 70.1448 98.998 70.1448C98.7494 70.1448 98.6073 70.1448 98.6073 70.1803C98.6073 70.1803 98.5718 70.2869 98.5007 70.4645C98.4297 70.6065 98.3586 70.8196 98.2876 71.0327C98.1455 71.4589 98.0034 71.885 98.0034 71.9561C98.0389 72.0981 97.293 73.8739 97.293 74.0514C97.293 74.2645 97.3285 74.5131 97.3285 74.7262C97.3285 74.9038 97.3285 75.0813 97.3285 75.2944C97.3285 75.3655 97.293 75.4365 97.293 75.543C97.293 75.6496 97.364 76.0402 97.3285 76.1113C97.293 76.1823 97.4351 76.2888 97.364 76.3599C97.293 76.4309 97.3995 76.5019 97.364 76.6085C97.3285 76.6795 97.5771 76.786 97.3995 76.8215C97.364 76.8215 97.364 76.8571 97.4351 76.8571C97.5771 76.8926 97.5416 76.9281 97.5061 76.9281C97.3285 77.0701 97.5416 77.2122 97.6482 77.3543C97.6482 77.3543 97.6127 77.3898 97.6482 77.3898C97.6837 77.4608 97.7192 77.5318 97.5416 77.5673C97.5061 77.5673 97.5771 77.5673 97.6127 77.6029C97.6127 77.6029 97.6127 77.6384 97.6482 77.6384C97.6482 77.6739 97.6837 77.7094 97.6837 77.7094C97.6837 77.7449 97.6837 77.7449 97.6482 77.7449C97.6482 77.7449 97.6127 77.7804 97.6482 77.7804C97.6837 77.887 97.7903 77.958 97.7903 78.0645C97.7903 78.1711 97.7548 78.3131 97.7548 78.4197C97.7548 78.5262 97.7903 78.6683 97.7903 78.7748C97.7903 78.9524 97.7548 79.13 97.7192 79.3076C97.6837 79.4496 98.181 80.6926 98.1455 80.7636C98.1455 80.7636 98.2876 80.7992 98.5007 80.7992C98.7139 80.7992 98.998 80.8347 99.2822 80.8347C99.8506 80.8702 100.454 80.8702 100.49 80.7992C100.525 80.7281 100.561 80.6216 100.632 80.5506C100.668 80.4795 100.845 80.4085 100.774 80.3375C100.703 80.2309 100.739 80.1244 100.81 80.0178C100.845 79.9468 100.81 79.8758 100.81 79.8403C100.845 79.6627 100.881 79.5206 100.916 79.3431C100.916 79.3076 100.987 79.272 100.987 79.2365C100.987 79.1655 100.916 79.0945 100.881 79.0234C100.881 78.9879 100.81 78.9879 100.81 78.9524C100.774 78.8814 100.81 78.8104 100.81 78.7038C100.81 78.6328 100.774 78.5973 100.774 78.5262C100.774 78.4552 100.668 78.3842 100.774 78.3487C100.845 78.3131 100.881 78.2421 100.739 78.2066C100.703 78.2066 100.739 78.1711 100.774 78.1711C100.81 78.1356 100.987 78.1001 100.916 78.0645C100.703 77.9935 100.881 77.9225 100.774 77.8159C100.739 77.7804 100.845 77.7804 100.774 77.7804C100.525 77.7094 100.739 77.6739 100.952 77.6384C100.987 77.6384 101.023 77.6029 100.952 77.6029C100.774 77.5673 100.881 77.5673 100.881 77.5673C100.881 77.5673 100.952 77.5318 100.881 77.5318C100.632 77.4963 100.774 77.4608 100.739 77.4253C100.739 77.4253 100.739 77.4253 100.739 77.3898C100.703 77.3187 101.271 75.3299 101.271 75.2234C101.271 75.0813 101.271 74.9393 101.271 74.7617C101.343 74.7262 101.343 74.6552 101.165 74.5486Z" fill="#01313D"/>
<path d="M34.9939 42.4959C30.0983 40.0676 24.4056 31.189 21.7111 28.1535C20.8382 27.167 19.4719 25.9528 17.9918 24.9663C13.9311 21.5515 7.17578 17.7572 3.87404 18.7817C3.87404 18.7817 2.31804 20.1855 2.46984 21.9688C2.62165 23.7901 2.16624 24.3213 2.16624 25.7252C2.16624 27.1291 1.52107 29.1021 3.68428 31.5304C5.61979 33.6932 7.06193 34.6797 7.97275 33.6552C7.17578 44.3172 8.42817 61.6191 8.50407 62.6056C8.27636 62.6436 8.08661 62.7953 8.08661 62.985C8.08661 63.3645 8.04866 64.2372 7.97275 65.034C7.89685 65.6031 8.57997 66.0584 9.33899 65.9825C14.9937 65.4513 27.0622 66.0964 31.047 65.7928C31.3506 65.7549 31.5783 65.5652 31.5404 65.3375C31.3506 64.5028 31.4645 63.2886 31.5404 62.6436C31.5783 62.4159 31.3127 62.2262 30.9711 62.2262H30.2121L29.7187 56.3071C38.2957 59.3805 47.7076 59.4184 48.125 55.2826C48.7322 48.6806 39.8896 44.9243 34.9939 42.4959Z" fill="#E6F972"/>
<path d="M23.4572 17.1881C23.4951 17.3019 23.6469 17.3398 23.7608 17.3778C23.8367 17.4157 23.9126 17.4157 24.0264 17.4916C24.2162 17.5675 24.4059 17.6813 24.5957 17.7193C24.6716 17.7193 24.7095 17.7193 24.7854 17.7193C24.9373 17.7572 25.0891 17.7572 25.2788 17.7572C25.4306 17.7572 25.6204 17.7193 25.7722 17.6813C25.9999 17.6054 26.1896 17.4916 26.3035 17.2639C26.3414 17.1881 26.3035 17.0742 26.1896 16.9604L26.1137 16.8845C25.9999 16.7707 25.9619 16.7327 25.886 16.7707L25.8481 16.8086C25.8101 16.8845 25.7342 16.9604 25.6583 16.9983C25.5065 17.0742 25.3927 17.0742 25.2788 17.1122C25.2029 17.1122 25.127 17.1122 25.0511 17.1122C24.9372 17.1122 24.7854 17.0742 24.6716 17.0742C24.5577 17.0363 24.4439 17.0742 24.368 16.9983C24.2162 16.8845 24.1023 16.7707 23.9885 16.7327C23.9126 16.6569 23.4192 17.1122 23.4572 17.1881Z" fill="#01313D"/>
<path d="M30.668 27.9259L34.501 28.7986C34.2354 28.5709 33.9318 28.4191 33.6661 28.2674C33.3625 28.1156 33.0589 28.0018 32.7173 27.9259C32.3758 27.85 32.0342 27.7741 31.6926 27.7741C31.3131 27.7741 30.9716 27.8121 30.668 27.9259Z" fill="#01313D"/>
<path d="M33.0587 29.178C32.7171 29.1021 32.3756 29.1021 32.034 29.1021C31.6924 29.1021 31.3509 29.1401 31.0093 29.2159C30.6678 29.2918 30.3262 29.4436 30.0605 29.6713L34.0454 29.4815C33.7039 29.3298 33.4002 29.2539 33.0587 29.178Z" fill="#01313D"/>
<path d="M31.3126 30.5818C31.5783 30.5439 31.8439 30.506 32.1096 30.468C32.6409 30.3542 33.1343 30.2783 33.6656 30.0506C33.1343 29.9748 32.565 30.0127 32.0337 30.0886C31.768 30.1265 31.5024 30.2024 31.2367 30.3162C30.971 30.4301 30.7054 30.5439 30.5156 30.7336C30.7813 30.6577 31.0469 30.6198 31.3126 30.5818Z" fill="#01313D"/>
<path d="M58.4104 72.7363C56.7406 70.991 54.4635 70.2701 52.2624 69.3215C49.6437 68.1452 47.9359 66.8552 46.4179 65.1098C45.6589 64.1992 45.1275 62.6056 45.0137 61.1638C44.8998 59.7219 45.2034 58.5837 43.989 58.5457C44.1029 58.5457 44.2167 58.5078 44.3306 58.4698C45.0516 58.3181 45.7348 58.1283 46.4179 57.8248C46.9112 57.5592 47.4046 57.2177 47.7841 56.7624C48.1636 56.3071 48.3534 55.6621 48.3534 55.0929C48.4293 53.9546 48.2016 52.8163 47.7462 51.7539C47.2908 50.7295 46.6076 49.7809 45.8486 48.9841C45.4312 48.5288 45.0137 48.1494 44.5583 47.77C44.4824 45.721 42.3951 42.9133 42.7366 40.9402C42.8884 39.9917 43.4956 39.1949 43.6095 38.2463C43.7234 37.2977 43.2679 36.3492 43.4577 35.4006C43.5336 34.9453 43.7613 34.5279 43.9511 34.0726C44.5583 32.4411 44.1788 30.468 42.9643 29.178V28.8365C43.2679 27.3567 43.3438 25.8011 43.192 24.3213C42.471 24.511 41.9776 25.1181 41.5601 25.6872C41.1427 26.2564 40.9529 26.7876 40.3078 27.167L40.1939 27.2429C39.8523 27.2429 39.5108 27.3188 39.1692 27.3567L39.4349 27.2808C38.9036 26.522 38.1445 25.4596 37.4614 24.7766C37.3855 25.7631 37.3476 26.7496 37.3855 27.7361L38.0686 27.5844C37.9168 27.6223 37.765 27.6603 37.6512 27.7361C37.4614 27.812 37.3096 27.8879 37.1578 28.0017C37.006 28.1156 36.8922 28.2673 36.7403 28.4191C36.3988 28.7985 35.9054 29.0262 35.4121 29.1021L35.2982 29.14C35.6018 29.2159 35.9434 29.2539 36.1331 29.2918C35.7536 29.4815 35.1844 29.7092 34.9187 30.0507C34.691 30.3163 34.9566 29.6333 34.8807 29.4436V29.2539C34.4633 29.3297 34.2356 29.8609 34.1217 30.3163C34.0079 30.8475 33.9699 31.3787 34.0079 31.9478C34.0079 32.2893 34.0838 32.6308 33.894 32.9343L33.7043 33.0102C32.6796 33.0861 31.6929 33.6173 30.9718 34.3382C30.2507 35.0591 29.7194 35.9697 29.264 36.9183C29.226 36.9942 29.226 37.0321 29.1881 37.0701C28.3152 36.0456 27.4423 34.9832 26.6074 33.9208C25.6207 32.6308 24.6339 31.3407 23.6093 30.0507C23.1159 29.4056 22.5846 28.7606 22.0533 28.1156C21.5979 27.5844 21.1045 27.0911 20.5732 26.6358C20.6111 26.5599 20.6111 26.4461 20.6491 26.3323C20.6491 26.2184 20.687 26.1425 20.725 26.0287C20.8009 25.8011 20.9147 25.6113 21.0286 25.3837C21.0665 25.3078 21.0665 25.2699 21.1045 25.194C21.1804 25.0422 21.2563 24.8525 21.3322 24.7007C21.4081 24.511 21.4461 24.3592 21.522 24.1695C21.5979 23.9419 21.6358 23.7142 21.5979 23.4486V23.4107C22.3569 23.3727 23.0779 23.1451 23.7611 22.8415C24.4821 22.5 25.1273 22.0068 25.6966 21.4756C26.0381 21.172 26.3038 20.8305 26.6074 20.4891C27.4044 19.5784 28.0875 18.554 28.6188 17.4916C29.1881 16.3912 29.6055 15.253 29.9091 14.0767C29.9851 13.7732 30.061 13.4317 30.0989 13.1282C30.1369 13.0902 30.1369 13.0523 30.1369 13.0143C30.1369 13.0143 30.1369 12.9764 30.0989 12.9764C30.2887 11.7243 30.3266 10.4722 30.1748 9.29593V9.25799C30.82 8.80267 31.3133 8.1197 31.6549 7.17113C33.2109 2.46622 26.6833 1.47971 26.114 1.06234C25.5068 0.644967 25.2791 -6.10352e-05 25.2791 -6.10352e-05C25.2791 -6.10352e-05 24.6339 0.758795 25.0894 1.36588C25.0894 1.36588 19.2069 -1.44189 19.0172 3.11125C19.0172 3.11125 17.6509 1.44177 17.0437 2.08679C17.0437 2.08679 18.1064 2.54211 17.5371 3.90805C17.5371 3.90805 17.0058 3.22508 16.6642 3.33891C16.6642 3.33891 16.057 4.55308 15.6016 6.14668C15.5636 6.26051 15.4877 6.41228 15.4498 6.56405C14.5389 9.22005 14.539 11.269 14.539 11.269L14.3871 13.4696C14.3492 13.925 14.5389 14.3803 14.8805 14.6838V14.7218C14.8805 14.7976 14.8805 14.8356 14.8426 14.9115C14.8046 15.1771 14.7667 15.4427 14.6908 15.7083C14.6149 16.0498 14.463 16.3533 14.3492 16.6948C14.2733 16.9224 14.1594 17.1122 14.0835 17.3398C13.9317 17.6813 13.742 18.0228 13.5902 18.3263C13.4384 18.6299 13.2866 18.9334 13.0968 19.199C12.7552 19.6164 12.4137 20.0337 12.0721 20.3373C12.0342 20.3752 12.0342 20.4132 11.9962 20.4511C11.7685 20.3373 11.5408 20.2235 11.3511 20.1096C10.4402 19.6543 9.5294 19.2749 8.61858 18.9714C7.6698 18.6678 6.72102 18.4402 5.73429 18.3643C5.05117 18.3263 4.55781 18.4022 4.21625 18.516C3.91264 18.6299 3.79879 18.7437 3.87469 18.7816C3.95059 18.8196 4.06445 18.8196 4.14035 18.8575C4.3301 18.8955 4.55781 18.9334 4.93732 18.9334C5.31683 18.9714 5.84815 18.9714 6.68307 19.1611C7.13848 19.2749 7.55595 19.3508 8.01136 19.5026C9.98482 20.1476 11.8824 21.0582 13.6661 22.1585C14.8426 22.8795 15.9431 23.6763 17.0437 24.511C17.575 24.9284 18.1064 25.3837 18.5997 25.839C19.0931 26.2943 19.5864 26.7876 20.1178 27.2429L20.4593 27.5464L19.966 27.2808C19.3967 27.0152 18.7895 26.7496 18.1823 26.522C16.7781 25.9908 15.298 25.5734 13.742 25.6872C13.3625 25.7252 12.983 25.7631 12.6034 25.8769L12.4516 25.9149C12.4137 25.9528 12.3378 25.9528 12.2998 25.9908C12.186 26.0287 12.0721 26.1046 11.9962 26.1805C11.9203 26.2564 11.8444 26.2943 11.7685 26.3702L11.5788 26.5979C11.0474 27.2049 10.6679 27.85 10.2884 28.495C9.64326 29.7092 9.07399 30.9233 8.50472 32.1755C8.35292 32.479 8.20112 32.7825 8.08726 33.0861C7.93546 33.3517 7.7457 33.5793 7.55595 33.6932C7.13848 33.9208 6.53127 33.6552 6.07585 33.2758C5.24093 32.6308 4.51986 31.796 3.83674 30.9992C3.19157 30.1645 2.73616 29.2539 2.66025 28.2294C2.6223 27.7361 2.6223 27.2049 2.69821 26.6737C2.6223 26.3702 2.66025 26.0667 2.66025 25.8011C2.66025 25.5355 2.66025 25.3078 2.69821 25.0422C2.77411 24.5489 2.88796 23.9798 2.96386 23.4107C3.00181 23.1071 3.00181 22.8415 3.00181 22.538C3.00181 22.2344 2.96386 21.9309 2.96386 21.7412C2.96386 20.6788 3.45723 19.7682 3.68493 19.237C3.79879 18.9714 3.87469 18.7816 3.83674 18.7437C3.79879 18.7058 3.64698 18.7437 3.41928 19.0093C3.03977 19.4267 2.73616 19.882 2.50845 20.4511C2.28074 20.9823 2.20484 21.5894 2.28074 22.1585C2.24279 22.6139 2.24279 23.1451 2.20484 23.6763C2.12894 24.1695 2.01509 24.7387 1.97713 25.2699C1.93918 25.7252 1.97713 26.1046 1.93918 26.522C1.86328 26.9393 1.86328 27.3567 1.86328 27.812C1.86328 28.2294 1.93918 28.6847 2.05304 29.1021C2.16689 29.5195 2.35665 29.9368 2.5464 30.3163C3.03977 31.1889 3.68493 31.9099 4.36805 32.5928C4.70961 32.9343 5.05117 33.2758 5.43069 33.5793C5.8102 33.8829 6.22766 34.1864 6.79693 34.3003C7.02463 34.3761 7.32824 34.3761 7.55595 34.3003C7.44209 35.818 7.36619 37.3736 7.32824 38.8913C7.21439 44.2033 7.36619 49.4774 7.5939 54.7514C7.78365 58.2801 8.20112 61.1638 8.46677 62.2262H8.73243C8.73243 62.0365 8.73243 61.8088 8.69448 61.5432C8.42882 56.383 8.12521 51.2228 8.01136 46.0625C7.93546 42.0406 7.93546 37.9428 8.23907 33.9208C8.23907 33.8829 8.23907 33.8829 8.23907 33.8449C8.27702 33.807 8.31497 33.7691 8.31497 33.7691C8.65653 33.3137 8.80833 32.8964 9.03604 32.4411C9.4535 31.5684 9.83301 30.7336 10.2505 29.8989C10.7438 28.9503 11.2372 28.0017 11.8444 27.2049C11.9583 27.0532 12.0721 26.9393 12.186 26.8255C12.2998 26.7496 12.4137 26.6358 12.5275 26.5979C12.5655 26.5599 12.6793 26.5599 12.7552 26.522C12.8312 26.484 12.9071 26.484 13.0209 26.4461C13.1727 26.4081 13.3625 26.3702 13.5143 26.3702C14.1974 26.2943 14.9185 26.3702 15.6016 26.484C17.0058 26.7496 18.3341 27.2808 19.6623 27.9259L20.4973 28.3432L20.9147 28.5709C20.9906 28.6088 21.0665 28.6468 21.1424 28.6847C21.1804 28.6847 21.2183 28.7227 21.3322 28.7606H21.3701H21.4081C21.4461 28.7606 21.4461 28.7606 21.484 28.7606C21.522 28.7606 21.522 28.7606 21.5599 28.7606C21.5979 28.7606 21.5979 28.7606 21.6358 28.7227C21.7876 28.9124 21.9774 29.1021 22.1292 29.2918C22.8502 30.1645 23.5334 31.0751 24.2165 31.9857C25.6966 33.9208 27.2146 35.8559 28.8086 37.7151C28.0495 38.1704 27.2905 38.7016 26.6074 39.2708C26.152 39.6502 25.6966 40.0296 25.393 40.5608C24.9376 41.2817 24.8617 42.1924 24.7098 43.0271C24.5201 44.0895 24.1785 45.076 23.6852 46.0625C23.4954 46.404 23.3057 46.7834 23.3057 47.2008C23.2677 47.5802 23.4575 48.0356 23.837 48.1494C23.9508 48.1873 24.0647 48.1873 24.1406 48.1873C24.7478 48.1494 25.2791 47.8079 25.6586 47.3146C26.0381 46.8593 26.2658 46.2902 26.5695 45.759C27.0628 44.7725 27.67 43.8618 28.3532 42.9892C28.8465 42.3821 29.4158 41.775 30.1369 41.5094C30.7061 41.2817 31.4272 41.2058 31.8826 40.8264C32.2621 41.13 32.6416 41.4714 33.0211 41.737C33.4007 42.0026 33.7422 42.2682 34.1597 42.4959L34.7669 42.8374L35.2603 43.103C34.8807 44.1654 35.45 45.0001 35.8675 46.2143C36.0193 46.7076 36.247 47.1629 36.4367 47.6561C36.8542 48.7185 37.0819 49.8189 37.1199 50.9572C37.1199 51.2986 37.1199 51.6401 37.2337 51.9437C37.3476 52.2472 37.6132 52.5508 37.9548 52.5508C38.3722 52.5887 38.7138 52.1713 38.9036 51.7919C39.4349 50.6536 39.4349 49.3256 39.4728 48.0356C39.5108 47.0111 39.5487 46.2902 39.9662 45.5313C40.7632 45.9866 41.5601 46.442 42.3192 46.9732C43.7613 47.9597 45.1275 49.06 46.1522 50.4639C46.6456 51.1469 47.101 51.9057 47.3287 52.7025C47.5944 53.4993 47.6703 54.3341 47.6323 55.1688C47.5944 55.9277 47.139 56.5727 46.4558 56.9901C45.7727 57.4074 44.9378 57.673 44.1029 57.8248C42.6987 58.0904 41.2186 58.0904 39.7385 58.0145C35.2223 57.028 31.6929 54.8653 30.1369 53.7649C30.061 53.689 29.9851 53.6131 29.9471 53.5752C29.4917 53.044 28.9983 52.5508 28.6947 52.0196C28.6188 51.8678 28.4291 51.8298 28.2393 51.7919C28.1634 51.7919 28.0495 51.7539 27.9736 51.7539C27.8977 51.7539 27.8598 51.8298 27.8598 51.8678C27.8977 52.2851 28.1634 52.5887 28.3911 52.8922C28.5809 53.1199 28.7706 53.3096 28.9604 53.5373C29.0742 53.6511 29.1501 53.727 29.264 53.8408C29.1501 55.5862 27.8598 58.3181 27.8598 59.7599C27.8598 60.1773 28.3532 61.657 28.5809 62.0365C28.5809 62.0744 28.6188 62.0744 28.6188 62.1123H28.3532C27.4044 62.1503 26.4176 62.1503 25.4309 62.1882C22.9261 62.2262 20.3834 62.2641 17.8407 62.3021C16.1708 62.3021 14.501 62.34 12.8312 62.34L10.3264 62.3779H9.07399H8.77038H8.61858C8.54268 62.3779 8.46677 62.3779 8.39087 62.4159C8.08726 62.4538 7.7457 62.7194 7.78365 63.0609L7.7457 63.8577C7.7457 64.1233 7.70775 64.3889 7.70775 64.6166L7.6698 64.996C7.63185 65.1478 7.6698 65.3754 7.7457 65.5272C7.85956 65.7549 8.01136 65.9066 8.20112 66.0205C8.08726 68.7144 7.97341 72.3569 8.12521 75.6579C8.39087 81.577 9.11194 87.4202 9.75711 92.5804C10.0228 94.7052 10.2884 96.7162 10.4402 98.4995C11.2372 106.354 6.18971 133.141 5.65839 135.911H6.53127L5.77225 139.402H7.13848C7.13848 139.44 7.13848 139.478 7.13848 139.554C7.13848 139.667 7.13848 139.743 7.10053 139.857C7.06258 140.085 6.98668 140.312 6.91078 140.502C6.87283 140.578 6.91078 140.616 6.87283 140.692C6.83488 140.844 6.75897 141.033 6.72102 141.185C6.68307 141.337 6.60717 141.527 6.56922 141.678C6.53127 141.792 6.53127 141.906 6.49332 142.02C6.45537 141.982 6.41741 141.982 6.41741 141.944C6.0379 141.641 5.46864 141.868 5.39273 142.361C4.89937 145.7 4.86142 147.37 4.97527 148.167C4.82347 148.28 4.70961 148.47 4.70961 148.66V149.343C4.70961 149.684 4.97527 149.95 5.31683 149.95H20.725V150.064C20.725 150.405 20.9906 150.671 21.3322 150.671H41.9017C42.2433 150.671 42.5089 150.405 42.5089 150.064V149.305C42.5089 149.077 42.3951 148.85 42.1674 148.774C41.4463 144.676 36.3229 146.118 34.1597 144.638C32.8314 143.727 31.579 142.855 30.782 142.286C30.2507 141.906 29.5676 141.944 29.0742 142.361C29.0742 142.172 29.0363 141.982 29.0363 141.792C29.0363 141.641 29.0363 141.451 29.0363 141.299C29.0363 141.033 29.0363 140.768 29.0363 140.502C29.0363 140.275 28.9983 140.009 28.9983 139.781H30.3266L30.2887 136.556H30.2128H28.6568H25.5068H22.3569H21.3322L21.4081 139.819H22.7364C22.7364 139.933 22.7364 140.085 22.7364 140.199C22.7364 140.312 22.7743 140.426 22.7743 140.54C22.7743 140.844 22.7743 141.147 22.7743 141.489C22.7743 141.792 22.8123 142.096 22.8123 142.437C22.8123 142.513 22.8123 142.589 22.8502 142.627C22.7743 142.551 22.6605 142.475 22.5846 142.437C22.1671 142.134 21.5979 142.361 21.522 142.855C21.3701 143.727 21.2563 144.448 21.1804 145.093C19.8521 144.904 18.4859 144.79 17.613 144.183C16.3227 143.31 15.1462 142.475 14.3871 141.944C14.0076 141.678 13.5143 141.641 13.0968 141.792C13.0968 141.754 13.0589 141.716 13.0589 141.678C13.0589 141.527 13.0968 141.375 13.0968 141.261C13.0968 141.185 13.1348 141.071 13.1727 140.995C13.2107 140.844 13.2486 140.692 13.2866 140.54C13.3245 140.426 13.3245 140.275 13.4384 140.161C13.5902 139.971 13.704 139.781 13.742 139.592C13.742 139.554 13.704 139.478 13.5902 139.402L14.8046 135.987H15.6016C15.9052 135.114 17.8407 129.726 20.0039 123.39C19.966 122.366 19.966 121.341 19.928 120.355C19.8521 116.864 19.7003 113.335 19.5105 109.882C19.4726 109.124 19.4346 108.365 19.3587 107.568L19.3208 106.999L19.2449 106.468C19.2069 106.088 19.0931 105.747 19.0551 105.367C18.7136 103.887 18.3341 102.408 17.9166 100.966C17.0817 98.0442 16.1329 95.1605 15.2221 92.2389C14.3112 89.3553 13.3625 86.4337 12.4516 83.55C11.9962 82.1082 11.5408 80.6284 11.1613 79.1487C10.7818 77.6689 10.4782 76.1512 10.1746 74.6335C9.64326 71.9395 9.18784 69.2456 8.73243 66.5517L8.69448 66.324C8.80833 66.3619 8.92219 66.3619 9.03604 66.3999C9.11194 66.3999 9.14989 66.3999 9.2258 66.3999L9.3776 67.3105C9.94687 70.8392 10.5541 74.3679 11.3511 77.8586C11.7306 79.604 12.2619 81.2735 12.7552 82.9809C13.2866 84.6883 13.8179 86.3957 14.3492 88.1032C15.6395 92.1631 16.9678 96.3368 18.2202 100.548C18.5238 101.611 18.8274 102.673 19.0931 103.736L19.2828 104.532L19.4726 105.367L19.5485 105.785L19.6244 106.202C19.6623 106.505 19.7003 106.771 19.7383 107.037C19.928 109.275 20.0039 111.476 20.1178 113.715C20.3075 118.609 20.4214 123.466 20.4973 128.361L20.6111 135.683V135.949V135.987H20.6491H20.725H21.4461H23.04H26.1899H30.061H30.8579H30.8959V135.949V135.873V135.683L30.9338 135.114L31.1236 132.876C31.3892 129.878 31.6549 126.919 31.8826 123.921C32.2621 119.406 32.6037 114.853 32.8693 110.338C33.0211 108.061 33.135 105.785 33.1729 103.546C33.2109 101.269 33.135 99.0307 33.0591 96.7921C32.7934 89.7727 32.3001 82.9429 31.8067 76.0374C31.6929 74.5196 31.579 73.0399 31.4651 71.4842C31.2754 68.942 31.1615 67.1587 31.0856 65.9066C31.1236 65.9446 31.2374 65.9446 31.3133 65.9446C31.3892 65.9446 31.5031 65.9066 31.6169 65.8307C31.7308 65.7549 31.7688 65.6031 31.7688 65.3754C31.7688 65.2995 31.7688 65.2616 31.7688 65.2236C31.7688 65.1857 31.7688 65.1098 31.7688 65.0719C31.7688 64.9581 31.7688 64.8442 31.7688 64.6925C31.7688 64.3889 31.7688 64.0474 31.8067 63.5921C31.8067 63.3645 31.8447 63.1747 31.8447 62.985C31.8447 62.8333 31.8826 62.6435 31.8067 62.5297C31.7308 62.3779 31.579 62.2641 31.4272 62.1882C31.3513 62.1503 31.2374 62.1123 31.1615 62.1123C31.0856 62.1123 31.0097 62.1123 30.9338 62.1123H30.5543H30.4025C30.4025 62.1123 30.4025 62.1123 30.4025 62.0744C30.5164 61.8847 30.5543 61.695 30.5923 61.5053C30.6682 60.9741 30.5543 60.4429 30.5923 59.9117C30.6302 59.3425 30.82 58.7734 31.1615 58.3181C30.8579 58.7354 35.9054 59.8358 36.1331 59.8737C37.3476 60.0634 37.9927 60.2911 37.9548 61.5811C37.9168 63.0609 37.8409 64.4648 39.4728 65.1098C39.9282 65.2995 40.4596 65.3375 40.877 65.1098C41.3324 64.8442 41.5601 64.2371 41.5601 63.7059C41.5601 63.1747 41.4842 62.6056 41.4842 62.0744C41.4842 61.5432 41.636 60.9361 42.0535 60.5946C42.0535 60.5946 41.8258 60.9741 42.1674 61.7709C43.7234 65.2237 45.3552 68.7144 47.8221 71.5601C50.3268 74.4058 54.2358 76.3788 57.4996 75.8476C57.7273 75.8097 58.2966 75.3923 58.4863 75.2406C59.0556 74.6335 58.8658 73.2296 58.4104 72.7363ZM20.4214 25.156C20.3455 25.3078 20.3455 25.4975 20.2316 25.6113C20.1178 25.7631 20.0419 25.9149 19.966 26.1046C19.7003 25.8769 19.4726 25.6872 19.2069 25.4596C18.372 24.6628 17.4232 23.9039 16.4745 23.2209C15.26 22.3103 13.9697 21.4756 12.6414 20.7547C12.7173 20.6788 12.7932 20.5649 12.8691 20.4891C13.0209 20.2993 13.1348 20.1476 13.2866 19.9579C13.5902 19.5784 13.8558 19.1611 14.1215 18.7058C14.1974 18.5919 14.2353 18.4402 14.3112 18.3263C14.501 17.9848 14.6528 17.6434 14.8046 17.3019C14.9564 16.9604 15.1082 16.581 15.2221 16.2395C15.3739 15.8221 15.4877 15.3668 15.4877 14.9115C15.5636 14.8735 15.6395 14.7976 15.6395 14.6838L15.7534 13.8491C15.9811 13.9629 16.2468 13.887 16.3606 13.7352C16.4745 13.5835 16.5124 13.4317 16.4365 13.3938C16.2088 13.2799 15.9431 13.1661 15.7913 12.9384C15.6395 12.7867 15.5636 12.559 15.5636 12.3693C15.5636 12.1416 15.6395 11.876 15.7154 11.6104C15.7913 11.3448 15.9052 11.0792 16.019 10.8136C16.0949 10.6619 16.1329 10.5101 16.1708 10.3583C16.2468 10.1686 16.3606 9.90302 16.4365 9.82713C16.5504 9.7133 16.6642 9.59947 16.7781 9.59947C16.9678 9.52359 17.2714 9.67536 17.575 9.90302C17.9545 10.2066 18.1443 10.586 18.1823 11.0792C18.1823 11.231 18.2582 11.3448 18.41 11.3828C18.4479 11.3828 18.4859 11.3828 18.5238 11.3828C18.7136 11.3828 18.7895 11.3069 18.8274 10.9654C18.8274 10.8895 18.8274 10.8136 18.7895 10.6998C18.7895 10.6619 18.7895 10.6619 18.7895 10.6239C19.169 10.0927 19.928 8.87856 20.0039 7.43673C20.4214 8.53707 26.1899 11.1931 29.5676 9.56153C29.5676 9.59947 29.5676 9.67536 29.5676 9.7133C29.5676 9.90302 29.6055 10.0927 29.6055 10.2445C29.6435 11.0413 29.6055 11.8002 29.4917 12.597C29.4917 12.597 29.4537 12.597 29.4537 12.559C29.1501 12.4072 28.7706 12.2555 28.3532 12.1796C27.5941 11.9899 26.8351 12.0278 26.8351 12.0278C26.8351 12.1416 26.8351 12.3314 26.8351 12.559C26.8351 12.7108 26.8351 12.9384 26.8731 13.0143L26.911 12.9764C26.949 12.9764 27.0249 13.0143 27.0628 12.9384C27.0628 12.9005 27.1008 12.9005 27.1387 12.9005C27.1387 12.9005 27.1767 12.8626 27.1767 12.9384C27.1767 12.8626 27.2146 12.9005 27.2146 12.9005C27.2146 12.9005 27.2146 12.9005 27.2526 12.9384C27.2905 13.0143 27.2905 12.9384 27.3285 12.9384C27.3285 12.8626 27.3664 12.9005 27.3664 12.8626C27.3664 12.8626 27.4044 12.8626 27.4044 12.9005C27.4044 12.9005 27.4044 12.9384 27.4044 12.9005C27.4423 12.8246 27.4803 12.9764 27.5182 12.9005C27.5562 12.7867 27.5562 12.9764 27.5941 12.9764L27.6321 12.9384C27.67 12.9384 27.67 12.9384 27.708 12.8626C27.708 12.9005 27.708 12.9005 27.708 12.9005C27.708 12.8626 27.708 12.9005 27.7459 12.9384C27.7839 13.0523 27.8218 12.7487 27.8218 12.9384C27.8218 12.9764 27.8218 13.0143 27.8218 13.0143C27.8598 13.0143 27.8598 13.0902 27.8977 12.9005C27.8977 12.9005 27.9357 12.9384 27.9357 12.9764C27.9357 13.0143 28.0116 13.0143 28.0116 12.9764C28.0116 12.9764 28.0116 12.9764 28.0116 13.0143C28.0116 13.0143 28.0116 13.0143 28.0495 13.0143C28.0495 12.9764 28.0875 13.0523 28.0875 13.0523H28.1254C28.1634 13.1282 28.2013 13.0523 28.2393 13.0902C28.2773 13.0523 28.3152 13.1661 28.3532 13.1282C28.3532 13.1282 28.4291 13.1282 28.467 13.1282C28.5429 13.1282 28.6188 13.1282 28.6568 13.1282C28.7327 13.1282 28.6947 13.3179 28.7706 13.204C28.7706 13.242 29.0363 13.4317 29.0363 13.3938C29.1122 13.3558 29.0363 13.4317 29.0742 13.4317C29.1501 13.4317 29.1501 13.3938 29.226 13.5076C29.226 13.5455 29.264 13.5455 29.264 13.5455C29.0742 14.3044 28.8465 15.0632 28.5429 15.7842C28.2773 16.4671 27.9357 17.1122 27.5941 17.7192C26.9869 18.7437 26.3038 19.6543 25.5068 20.4891C24.7857 21.2479 23.9508 21.9309 23.002 22.2724C22.6225 22.4241 22.2051 22.5 21.8256 22.538C21.4461 22.5759 21.0286 22.5759 20.6491 22.5C19.8901 22.3483 19.131 21.9688 18.6377 21.3997C18.372 21.0961 18.0684 20.8305 17.8407 20.6788C17.613 20.527 17.4232 20.527 17.4991 20.7926C17.613 21.2479 17.8786 21.6653 18.1823 22.0068C18.5238 22.3483 18.9033 22.6139 19.3208 22.8036C19.8142 23.0312 20.3455 23.183 20.9147 23.2209C20.9147 23.3727 20.9147 23.4865 20.8768 23.6383C20.8388 23.7901 20.7629 23.9798 20.725 24.1316C20.687 24.2454 20.6491 24.3592 20.6111 24.4351C20.5732 24.8145 20.4973 24.9663 20.4214 25.156ZM40.3457 33.1999C39.8523 32.7067 39.2451 32.2893 38.6759 31.9099C38.1825 31.5684 37.6891 31.2269 37.2337 30.8475L37.006 30.6198L37.3096 30.7336C37.8409 30.9613 38.3722 31.3028 39.0174 31.7201C39.0554 31.7581 39.1313 31.796 39.1692 31.834C39.6246 32.1755 40.118 32.5549 40.4216 33.0861L40.5355 33.3517L40.3457 33.1999ZM41.8258 32.8584C41.2565 32.2893 40.5355 31.8719 39.8144 31.4925L39.6626 31.4166C39.1692 31.151 38.4861 30.8095 37.8789 30.5439C37.6891 30.4301 37.4614 30.3542 37.3096 30.2783L37.3476 30.2024C38.1445 30.4301 38.9795 30.7336 39.8144 31.151C40.6114 31.5684 41.4083 32.0616 41.9017 32.8205L42.1674 33.1999L41.8258 32.8584ZM37.8789 29.6712L37.4614 29.5574V29.4815C39.9282 29.6333 41.674 30.2404 42.8505 31.3787L42.7746 31.4545C42.6607 31.3787 42.5848 31.3407 42.471 31.2648C41.1047 30.3921 39.4728 30.0127 37.8789 29.6712ZM28.3911 139.781C28.3911 140.009 28.3911 140.199 28.3911 140.426C28.3911 140.54 28.4291 140.616 28.4291 140.73C28.4291 140.995 28.4291 141.261 28.4291 141.527C28.4291 141.792 28.467 142.058 28.467 142.323C28.467 142.475 28.505 142.665 28.5429 142.817C27.8598 143.272 26.949 143.689 25.8484 143.689C25.0514 143.689 24.2924 143.386 23.6472 143.044C23.6093 142.893 23.5713 142.779 23.5713 142.627C23.5334 142.323 23.5334 142.058 23.5334 141.754C23.5334 141.565 23.5334 141.375 23.5334 141.185C23.5334 140.882 23.5334 140.578 23.4954 140.237C23.4954 140.085 23.4575 139.933 23.4575 139.781H28.3911ZM13.0209 139.44C13.0209 139.478 13.0209 139.478 13.0209 139.44C12.983 139.554 12.983 139.667 12.9071 139.743C12.8312 139.933 12.7173 140.123 12.6414 140.312C12.6034 140.388 12.6034 140.426 12.6034 140.502C12.5655 140.654 12.4896 140.806 12.4516 140.995C12.4137 141.147 12.3757 141.337 12.3757 141.489C12.3757 141.716 12.3757 141.944 12.5275 142.134C11.8824 142.665 10.8577 143.234 9.56736 143.234C8.69448 143.234 7.85956 142.893 7.21439 142.475V142.437C7.21439 142.286 7.21439 142.172 7.21439 142.058C7.25234 141.906 7.29029 141.716 7.36619 141.565C7.40414 141.451 7.44209 141.337 7.48004 141.223C7.518 141.033 7.5939 140.882 7.63185 140.692C7.6698 140.54 7.6698 140.35 7.7457 140.199C7.85956 139.933 7.93546 139.667 7.93546 139.402H13.0209V139.44ZM30.9338 62.6056C31.1236 62.6056 31.0856 62.6056 31.1615 62.6435C31.1615 62.6815 31.1615 62.6815 31.1615 62.7574L31.1236 63.0989C31.0856 63.5542 31.0856 64.0095 31.1236 64.4269C31.1236 64.6166 31.1615 64.7683 31.1615 64.9201C31.1615 64.996 31.1995 65.0719 31.1995 65.1478C31.1995 65.1857 31.1995 65.2237 31.2374 65.2616V65.2995V65.3375C31.3513 65.6031 30.9718 65.679 31.0477 65.7549H31.0097C31.1236 65.641 31.0097 65.5651 30.5923 65.6031C28.6568 65.641 26.6833 65.641 24.7098 65.641C23.1918 65.641 21.6358 65.6031 20.0798 65.6031C16.6263 65.5272 13.1348 65.4513 9.64326 65.641L9.26375 65.679C9.14989 65.679 9.07399 65.679 8.96014 65.679C8.77038 65.641 8.58063 65.6031 8.42882 65.4893C8.27702 65.3754 8.23907 65.2616 8.23907 65.1478L8.31497 64.4269L8.35292 63.7439L8.39087 63.0989C8.39087 63.0609 8.42882 63.023 8.42882 63.023C8.42882 63.023 8.46677 63.023 8.50472 62.985C8.54268 62.985 8.58063 62.985 8.65653 62.985H9.49145H11.1993L14.5769 62.9471C17.3094 62.9091 20.0419 62.8712 22.7364 62.8333C24.558 62.7953 26.3797 62.7574 28.2013 62.7194C29.1501 62.6815 30.061 62.6435 30.9338 62.6056Z" fill="#01313D"/>
<path d="M0 132.041H163" stroke="#01313D"/>
<path d="M20.5727 12.6729C20.6107 12.6729 20.6107 12.6349 20.6107 12.6349C20.6486 12.6349 20.7625 12.6349 20.8004 12.597C20.8004 12.559 20.8384 12.5211 20.8763 12.559C20.9143 12.559 20.9143 12.5211 20.9522 12.597C20.9522 12.5211 20.9902 12.559 21.0281 12.559H21.0661C21.104 12.6349 21.104 12.559 21.142 12.559C21.142 12.4832 21.1799 12.4832 21.1799 12.4832C21.1799 12.4452 21.2179 12.4832 21.2179 12.5211C21.2179 12.5211 21.2179 12.559 21.2179 12.5211C21.2179 12.4452 21.2938 12.559 21.3317 12.4832C21.3697 12.3693 21.3697 12.559 21.4456 12.5211L21.4835 12.4832C21.5215 12.4832 21.5215 12.4832 21.5215 12.3693C21.5215 12.4073 21.5215 12.4073 21.5594 12.4073C21.5594 12.3693 21.5974 12.4073 21.5974 12.4073C21.6733 12.5211 21.6733 12.2176 21.7112 12.3693C21.7112 12.4073 21.7112 12.4452 21.7112 12.4452C21.7492 12.4452 21.7871 12.4832 21.7871 12.3314C21.7871 12.3314 21.8251 12.3314 21.8251 12.3693C21.863 12.4073 21.901 12.4073 21.901 12.3693C21.901 12.3693 21.901 12.3693 21.9389 12.4073C21.9389 12.4073 21.9389 12.4073 21.9769 12.4073C21.9769 12.3693 22.0148 12.4073 22.0148 12.4452H22.0528C22.0907 12.5211 22.1287 12.4452 22.1666 12.4832C22.2046 12.4452 22.2426 12.5211 22.2805 12.5211C22.2805 12.5211 22.5462 12.4832 22.66 12.4832C22.7359 12.4832 22.7359 12.6729 22.8118 12.5211C22.8118 12.559 23.1913 12.7108 23.2293 12.6729C23.3052 12.597 23.2672 12.7108 23.3052 12.6729C23.3811 12.6349 23.3811 12.597 23.5708 12.7108C23.7226 12.8246 23.6847 12.9385 23.9124 12.559C23.9883 12.4073 24.0642 12.2555 24.1022 12.0658C24.1401 11.952 24.1781 11.8381 24.1401 11.8002C24.1022 11.7622 24.1022 11.7622 24.0642 11.7622C23.8744 11.8381 23.0016 11.4966 22.0907 11.4966C21.6353 11.4966 21.2179 11.5346 20.9143 11.5725C20.6107 11.6105 20.4209 11.6484 20.4209 11.6484C20.4209 11.7622 20.4588 11.914 20.4968 12.1796C20.4968 12.3693 20.5348 12.6349 20.5727 12.6729Z" fill="#01313D"/>
</svg>
