<svg width="75" height="54" viewBox="0 0 75 54" fill="none" xmlns="http://www.w3.org/2000/svg">
<path d="M21.7167 19.1667C22.0259 18.9678 22.3805 18.7666 22.692 18.6135C23.9355 17.9554 25.22 17.2033 26.627 17.0882C25.1084 17.714 23.6034 18.6147 22.0507 19.4718C22.3824 19.731 22.7596 19.988 23.0526 20.387C23.5819 20.958 23.7066 21.6408 23.8246 22.1861C23.8768 22.3213 23.8858 22.5046 23.9857 22.6834C24.5632 22.3794 25.227 21.9794 25.9341 21.5313C26.7298 21.0329 27.5687 20.4864 28.4076 19.94C28.7101 19.6036 29.058 19.265 29.4923 18.8303L29.9266 18.3957C30.1862 17.1888 30.4981 16.1171 30.6507 15.5126C31.1812 13.3279 33.3964 10.1878 32.6559 9.03015C32.263 8.45242 31.6217 9.31063 31.6217 9.31063C31.6217 9.31063 31.8471 8.33508 31.3313 8.03895C30.536 7.61878 30.1332 8.69491 30.1332 8.69491C29.8379 8.25015 28.9791 7.46569 28.2029 10.2135C27.6975 11.9836 26.4081 13.5626 24.6641 15.1639C25.4189 14.7594 26.2259 14.4901 27.0828 14.3102C24.9846 15.1941 23.0929 16.573 21.249 17.9956C21.1626 18.0917 21.1216 18.1856 21.1239 18.2314C21.051 18.6024 21.2918 18.8661 21.7167 19.1667Z" fill="#E4E874"/>
<path d="M69.7236 15.9342C65.1874 9.8652 64.7332 8.96899 61.28 5.4646C59.5057 3.66882 58.3719 2.85195 57.2836 2.03284C55.3455 0.612539 52.027 0.775684 51.0329 2.79942C50.9942 2.9391 50.9964 2.98492 50.9964 2.98492C48.0576 8.08951 55.9815 11.6956 61.0234 15.0759C66.0654 18.4563 67.5549 21.8735 68.2126 25.0561C68.8703 28.2386 67.6391 31.9274 65.8631 33.8058C63.7393 36.0229 65.0422 34.7188 62.6708 36.5347C62.6708 36.5347 62.2342 36.9236 61.1432 36.9772C61.7184 36.6274 62.155 36.2386 62.155 36.2386L62.105 36.1492C62.105 36.1492 63.4372 35.4407 63.5861 32.9074C63.7372 30.4199 58.6443 24.1487 57.5015 23.1485C56.3587 22.1484 55.1163 20.0509 53.6238 18.425C52.4675 17.15 51.8319 15.3441 51.2004 14.5485C50.5689 13.7528 50.144 13.4522 49.6394 13.3852C49.1349 13.3181 49.0733 13.9182 49.0733 13.9182C48.8734 13.5606 48.5984 13.5282 48.287 13.6813C47.9778 13.8802 48.0003 14.3384 48.0003 14.3384C47.8526 14.116 47.5844 14.2211 47.5844 14.2211C47.5844 14.2211 46.8251 14.5339 47.2816 15.476C47.6358 16.1934 48.0378 16.9544 48.6189 18.5792C48.9844 19.5257 49.0245 21.2689 49.3216 22.6781C49.6165 24.0414 50.9682 25.5824 50.7347 29.1761C51.5071 30.0567 52.234 30.9395 52.7814 31.8771C53.3809 32.9498 53.7055 33.9902 53.8869 34.8998C54.0684 35.8094 54.0589 36.5447 53.9905 37.0074C53.9699 37.5136 53.8925 37.793 53.8925 37.793C53.8925 37.793 53.8605 38.0701 53.6422 38.2645C53.3443 38.6925 53.3898 38.6903 53.3173 38.1427C53.3105 38.0053 53.2992 37.7762 53.3654 37.2677C53.3861 36.7615 53.4387 35.9782 53.2438 34.7937C52.9331 33.1096 52.0338 31.5005 50.8797 30.2713C49.7689 28.994 48.7102 27.8519 47.9855 27.015C47.7425 26.7054 47.2087 26.0428 46.5727 25.1555C46.2319 24.713 45.9344 24.2224 45.5892 23.6882C45.2439 23.1541 44.9419 22.5719 44.6853 21.9875C43.9611 20.2319 43.8323 18.539 43.9465 17.1555C43.9762 16.8326 44.0036 16.4638 44.0788 16.1386C44.1539 15.8134 44.2313 15.5341 44.2633 15.2569C44.3726 14.7004 44.4865 14.2356 44.5139 13.8668C44.5049 13.6836 44.4959 13.5003 44.4459 13.4109C44.3982 13.3673 44.396 13.3215 44.396 13.3215C44.3937 13.2757 44.3028 13.2801 44.3006 13.2343C44.1142 13.1516 43.9346 13.2064 43.7573 13.307C43.7118 13.3092 43.6686 13.3572 43.6232 13.3595C43.5345 13.4098 43.4481 13.5059 43.3572 13.5103C43.1799 13.6109 43.0412 13.5718 42.9026 13.5327C42.6254 13.4545 42.5254 13.2757 42.4732 13.1405C42.471 13.0946 42.4233 13.0511 42.4233 13.0511L42.421 13.0052L42.3733 12.9617C42.3256 12.9181 42.3256 12.9181 42.2779 12.8745C42.2302 12.8309 42.1847 12.8332 42.1392 12.8354C42.0483 12.8399 42.0938 12.8376 42.0938 12.8376C42.0938 12.8376 42.0938 12.8376 42.0051 12.8879C41.9597 12.8901 41.9165 12.9382 41.8733 12.9862C41.8733 12.9862 41.83 13.0343 41.7868 13.0823C41.7436 13.1304 41.7004 13.1785 41.7027 13.2243C41.6595 13.2723 41.6185 13.3662 41.6208 13.412C41.5776 13.4601 41.5321 13.4623 41.4867 13.4645C41.4412 13.4668 41.4412 13.4668 41.4412 13.4668C41.4412 13.4668 41.3957 13.469 41.4412 13.4668C41.3957 13.469 41.3503 13.4712 41.3048 13.4735C41.2139 13.4779 41.073 13.393 40.9731 13.2142C40.9254 13.1706 40.9231 13.1248 40.8777 13.127C40.83 13.0835 40.8322 13.1293 40.83 13.0835L40.7823 13.0399C40.7368 13.0421 40.6891 12.9985 40.6436 13.0008C40.5982 13.003 40.5527 13.0052 40.5073 13.0075C40.4163 13.0119 40.3731 13.06 40.3299 13.108C40.2413 13.1583 40.1548 13.2544 40.1616 13.3919C40.1252 13.5774 40.1387 13.8523 40.1522 14.1272C40.1657 14.4021 40.1338 14.6792 40.1041 15.0022C40.0879 15.6 39.9831 16.2481 39.8782 16.8963C39.6685 18.1925 39.2815 19.5894 38.8036 20.9907C37.1786 25.9388 37.0477 28.8386 36.947 30.497C36.8917 32.1531 36.9552 32.5174 36.8323 32.799C36.8571 33.3029 36.732 33.5387 36.6275 33.2683C36.4912 33.275 36.439 33.1398 36.371 32.6839C36.3484 32.2257 36.3124 31.4926 36.388 30.2489C36.459 28.9135 36.6394 27.0216 36.9333 25.5835C36.5606 25.4181 36.2334 25.2505 35.8607 25.0851C35.5533 26.2484 35.196 27.3222 34.741 28.2631C34.2518 29.4354 33.6173 30.431 32.9737 31.2434C32.3301 32.0558 31.5843 32.6436 30.9205 33.0437C30.2566 33.4437 29.6724 33.6102 29.2678 33.722C28.8632 33.8337 28.6359 33.8449 28.6359 33.8449C28.6359 33.8449 28.545 33.8494 28.4541 33.8538C28.3632 33.8583 28.1791 33.8214 28.0404 33.7823C27.4427 33.6739 27.4882 33.6717 28.0679 33.4135C28.202 33.361 28.4725 33.3018 29.0567 33.1353C29.5954 32.971 30.4501 32.7453 31.5006 31.867C32.2464 31.2792 32.8445 30.469 33.3949 29.6153C33.8998 28.7638 34.3094 27.8251 34.6302 26.9367C35.2697 25.1141 35.641 23.3966 35.8529 22.1461C35.969 21.7271 36.1035 20.756 36.4086 19.5469C36.7137 18.3378 37.2371 16.9343 37.7196 15.6246C38.0791 14.5965 38.3977 13.6623 38.6754 12.822C38.7915 12.4029 38.9076 11.9839 38.9805 11.6129C39.017 11.4274 39.0534 11.2419 39.0466 11.1044C39.0399 10.967 39.0309 10.7837 39.0331 10.8295C38.9832 10.7401 38.9377 10.7424 38.8468 10.7468L38.8013 10.7491C38.7559 10.7513 38.8013 10.7491 38.7127 10.7994C38.624 10.8496 38.5808 10.8977 38.4921 10.948C38.4035 10.9983 38.3625 11.0921 38.2716 11.0966C38.1375 11.1491 38.0466 11.1536 38.0011 11.1558C37.9557 11.1581 37.9557 11.1581 37.9102 11.1603C37.8647 11.1625 37.817 11.1189 37.7693 11.0754C37.7193 10.986 37.6239 10.8988 37.6559 10.6217C37.6968 10.5278 37.6901 10.3904 37.6856 10.2987L37.6811 10.2071C37.6788 10.1613 37.6788 10.1613 37.6788 10.1613L37.6766 10.1155C37.6743 10.0696 37.6266 10.0261 37.6243 9.98025C37.5766 9.93667 37.5289 9.89309 37.3903 9.85397C37.1607 9.81933 36.9357 9.87632 36.8061 10.0205C36.7174 10.0708 36.631 10.1669 36.5901 10.2607C36.5469 10.3088 36.4627 10.4507 36.3785 10.5926C36.2921 10.6887 36.2512 10.7826 36.1625 10.8329C36.0738 10.8832 36.0738 10.8832 35.9852 10.9334C35.8943 10.9379 35.8033 10.9424 35.7556 10.8988C35.7079 10.8552 35.6625 10.8575 35.6148 10.8139C35.5648 10.7245 35.5148 10.6351 35.4671 10.5915C35.4649 10.5457 35.4149 10.4563 35.3672 10.4127C35.3195 10.3691 35.2718 10.3255 35.2718 10.3255C35.2695 10.2797 35.2241 10.282 35.1764 10.2384C35.1286 10.1948 35.0809 10.1512 35.0355 10.1535C34.9423 10.1121 34.8536 10.1624 34.8082 10.1646C34.6763 10.263 34.5489 10.4529 34.467 10.6407C34.4261 10.7345 34.3851 10.8284 34.3874 10.8742C34.3919 10.9659 34.3487 11.0139 34.3509 11.0597C34.31 11.1536 34.3122 11.1994 34.3145 11.2452C34.3145 11.2452 34.319 11.3368 34.2803 11.4765C34.2416 11.6162 34.2074 11.8475 34.2232 12.1682C34.1935 12.4912 34.2092 12.8119 34.1886 13.3181C34.1544 13.5494 34.1679 13.8243 34.1359 14.1015C34.0585 14.3808 34.0266 14.658 33.9492 14.9373C33.5964 16.1029 32.8367 17.3343 31.7498 18.3981C30.6629 19.462 29.3442 20.4453 27.9301 21.3415C26.6478 22.1394 25.4929 22.7473 24.4744 23.3485C23.4537 23.9039 22.6602 24.4481 22.0076 25.0772C20.7456 26.2874 20.1655 27.4641 19.7947 28.2631C19.4261 29.1079 19.2713 29.6667 19.153 30.0399C19.0346 30.4131 18.9527 30.6009 18.8663 30.697C18.7569 31.2535 18.6318 31.4893 18.5251 31.173C18.3865 31.1339 18.3343 30.9987 18.4459 30.488C18.512 29.9796 18.6988 29.1437 19.363 27.8251C19.7339 27.0261 20.282 26.1265 21.0143 25.2638C21.1871 25.0716 21.3577 24.8336 21.576 24.6392C21.7942 24.4447 21.9671 24.2525 22.1421 24.1061C22.3172 23.9598 22.5377 23.8111 22.7128 23.6647C22.8015 23.6145 22.8879 23.5184 22.9766 23.4681C22.9766 23.4681 23.022 23.4658 23.0198 23.42C22.4909 21.9304 21.4345 20.8342 20.8165 20.3135C20.3277 20.5671 19.8389 20.8208 19.3479 21.0286C19.7412 20.6878 20.1369 20.3928 20.5779 20.0955C20.3416 19.9235 20.1418 19.5659 19.8965 19.2105C19.3258 19.6519 18.7119 20.1414 18.1412 20.5828C18.6597 20.0061 19.1804 19.4753 19.7466 18.9423C19.499 18.5411 19.2037 18.0964 18.9107 17.6975C18.2194 18.4663 17.4827 19.2373 16.7936 20.052C17.3872 19.1502 17.9831 18.2942 18.6699 17.4337C18.4768 17.2136 18.286 17.0393 18.0519 16.913C16.7817 16.1028 15.1975 16.3185 13.8724 16.2459C12.5474 16.1732 11.7709 14.2825 10.935 13.0376C10.1014 11.8386 9.20845 11.2854 9.20845 11.2854C7.14256 10.9736 9.44229 16.9688 8.0165 18.5545C6.63617 20.138 7.36576 20.148 6.45393 21.0655C5.54211 21.9829 3.65293 17.8505 2.48043 17.1733C1.30794 16.4961 0.569549 20.9414 1.62205 25.6661C2.10919 29.0867 3.14491 30.6891 4.49657 32.2301C5.99342 29.309 8.80138 27.1043 11.4977 25.4102C9.0512 27.5513 6.51373 29.6968 4.64196 32.4067C5.21899 33.0213 5.79827 33.6817 6.47298 34.4293C6.61837 34.6059 6.71604 34.7388 6.86142 34.9154C7.14851 33.3398 8.0333 31.8725 8.88165 30.5908C9.90282 29.1169 11.0217 27.7759 12.3291 26.5634C11.4353 27.8474 10.1094 29.6119 9.25883 30.8478C8.36728 32.1776 7.47572 33.5074 6.91364 35.0506C8.77845 37.7605 8.69942 41.7141 14.7914 45.1347C20.0404 48.0915 27.5695 50.1555 32.5244 49.9119C37.7976 49.6526 44.1677 51.3143 48.2292 51.4361C58.3592 51.7189 60.9934 46.9048 63.7157 42.959C66.4381 39.0133 69.8761 35.7212 71.4958 32.5185C73.161 29.3136 74.262 22.049 69.7236 15.9342ZM9.80945 34.6327C9.78959 33.3018 10.4584 32.0748 10.9907 30.8545C11.5709 29.6778 12.2441 28.5425 13.0583 27.4921C12.1321 29.9717 10.6447 32.1575 9.80945 34.6327ZM14.6626 23.0501C14.4763 22.9674 14.5537 22.6881 14.5537 22.6881C14.5537 22.6881 14.8404 22.031 15.6064 21.8556C15.6064 21.8556 15.709 21.1616 16.5137 20.8465C16.5137 20.8465 16.741 20.8353 16.8841 20.966C16.9796 21.0532 16.9454 21.2845 16.8157 21.4287C16.0745 22.1081 17.1493 22.6523 17.2492 22.8311C17.2492 22.8311 17.256 22.9686 17.215 23.0624C17.0854 23.2066 16.9923 23.1652 16.9923 23.1652C16.8604 23.2636 16.0538 22.6143 15.7356 22.63C15.3265 22.6501 15.0218 22.9406 15.0218 22.9406C15.0218 22.9406 14.849 23.1328 14.6626 23.0501ZM15.3361 26.5534C16.9613 26.2439 17.6324 25.0627 17.1921 23.5228L17.1309 23.2043L17.4104 23.3284C18.5716 23.7765 19.9628 23.3407 20.5452 22.2098L20.7954 21.7382C20.4628 23.3161 19.0465 24.1665 17.5693 23.7798C17.9164 25.2784 17.0203 26.5165 15.3361 26.5534Z" fill="#E4E874"/>
</svg>
